SplineFontDB: 3.2
FontName: Donjon
FullName: Donjon
FamilyName: Donjon
Weight: Regular
Copyright: Copyright (c) 2020, Maxime Bouton
UComments: "2020-5-14: Created with FontForge (http://fontforge.org)"
Version: 001.000
ItalicAngle: 0
UnderlinePosition: -16
UnderlineWidth: 8
Ascent: 130
Descent: 30
InvalidEm: 0
LayerCount: 2
Layer: 0 0 "Back" 1
Layer: 1 0 "Fore" 0
XUID: [1021 247 1222825346 7500023]
StyleMap: 0x0000
FSType: 0
OS2Version: 0
OS2_WeightWidthSlopeOnly: 0
OS2_UseTypoMetrics: 1
CreationTime: 1589472063
ModificationTime: 1589545769
OS2TypoAscent: 0
OS2TypoAOffset: 1
OS2TypoDescent: 0
OS2TypoDOffset: 1
OS2TypoLinegap: 14
OS2WinAscent: 0
OS2WinAOffset: 1
OS2WinDescent: 0
OS2WinDOffset: 1
HheadAscent: 0
HheadAOffset: 1
HheadDescent: 0
HheadDOffset: 1
MarkAttachClasses: 1
DEI: 91125
Encoding: iso8859-16
UnicodeInterp: none
NameList: AGL For New Fonts
DisplaySize: -36
AntiAlias: 1
FitToEm: 0
WinInfo: 0 16 15
BeginPrivate: 0
EndPrivate
BeginChars: 296 296

StartChar: exclam
Encoding: 33 33 33
Width: 80
VWidth: 0
Flags: HW
LayerCount: 2
Fore
SplineSet
40 100 m 0
 51.044921875 100 60 91.044921875 60 80 c 2
 60 75 l 2
 60 60 49.9990234375 60 50 45 c 2
 50 30 l 1
 30 30 l 1
 30 45 l 2
 30.0009765625 60 20 60.0029296875 20 75.0029296875 c 2
 20 80 l 2
 20 91.044921875 28.955078125 100 40 100 c 0
40 21.25 m 0
 46.212890625 21.25 51.25 16.212890625 51.25 10 c 0
 51.25 3.787109375 46.212890625 -1.25 40 -1.25 c 0
 33.787109375 -1.25 28.75 3.787109375 28.75 10 c 0
 28.75 16.212890625 33.787109375 21.25 40 21.25 c 0
EndSplineSet
EndChar

StartChar: quotedbl
Encoding: 34 34 34
Width: 80
VWidth: 0
Flags: HW
LayerCount: 2
Fore
SplineSet
10 110 m 5
 30 110 l 5
 30 69.9990234375 l 5
 25 69.9990234375 l 5
 10 84.9990234375 l 5
 10 110 l 5
50 110 m 5
 70 110 l 5
 70 84.9990234375 l 5
 55 69.9990234375 l 5
 50 69.9990234375 l 5
 50 110 l 5
EndSplineSet
EndChar

StartChar: numbersign
Encoding: 35 35 35
Width: 80
VWidth: 0
Flags: HW
LayerCount: 2
Fore
SplineSet
10 90 m 5
 30 90 l 5
 30 70 l 5
 40 70 l 5
 40 90 l 5
 60 90 l 5
 60 70 l 5
 70 70 l 5
 70 60 l 5
 60 60 l 5
 60 30 l 5
 70 30 l 5
 70 20 l 5
 60 20 l 5
 60 0 l 5
 40 0 l 5
 40 20 l 5
 30 20 l 5
 30 0 l 5
 10 0 l 5
 10 20 l 5
 0 20 l 5
 0 30 l 5
 10 30 l 5
 10 60 l 5
 0 60 l 5
 0 70 l 5
 10 70 l 5
 10 90 l 5
30 60 m 5
 30 30 l 5
 40 30 l 5
 40 60 l 5
 30 60 l 5
EndSplineSet
EndChar

StartChar: dollar
Encoding: 36 36 36
Width: 80
VWidth: 0
Flags: HW
LayerCount: 2
Fore
SplineSet
30.076171875 120 m 1
 50.07421875 120 l 1
 50.07421875 98.76171875 l 1
 57.7763671875 96.7509765625 64.880859375 92.4189453125 70.07421875 86.373046875 c 1
 70.07421875 70.025390625 l 1
 60.07421875 70.029296875 l 1
 60.3759765625 80.306640625 51.3505859375 89.7734375 41.146484375 90.029296875 c 2
 20.07421875 90.029296875 l 1
 20.07421875 60.029296875 l 1
 47.150390625 60.1015625 l 2
 57.564453125 59.9619140625 68.234375 52.3759765625 70.07421875 42.029296875 c 2
 70.07421875 24.021484375 l 2
 71.06640625 12.2626953125 61.9482421875 0.9013671875 50.07421875 0.021484375 c 1
 50.07421875 -19.9453125 l 1
 30.076171875 -19.9453125 l 1
 30.076171875 0.021484375 l 1
 30.07421875 0.021484375 l 1
 29.009765625 0.03125 l 2
 18.0205078125 0.2412109375 7.2333984375 5.341796875 0.07421875 13.677734375 c 1
 0.07421875 30.025390625 l 1
 10.07421875 30.025390625 l 1
 9.7607421875 19.3896484375 19.4384765625 9.6181640625 30.07421875 10.029296875 c 2
 30.076171875 10.029296875 l 1
 50.07421875 10.029296875 l 1
 50.07421875 50.029296875 l 1
 20.07421875 50.025390625 l 2
 8.2001953125 50.9052734375 -0.91796875 62.2666015625 0.07421875 74.025390625 c 2
 0.07421875 82.029296875 l 2
 1.9130859375 92.3759765625 12.583984375 99.8896484375 22.998046875 100.029296875 c 2
 30.076171875 100.029296875 l 1
 30.076171875 120 l 1
EndSplineSet
EndChar

StartChar: percent
Encoding: 37 37 37
Width: 80
VWidth: 0
Flags: HW
LayerCount: 2
Fore
SplineSet
10 81.25 m 0
 16.212890625 81.25 21.25 76.212890625 21.25 70 c 0
 21.25 63.787109375 16.212890625 58.75 10 58.75 c 0
 3.787109375 58.75 -1.25 63.787109375 -1.25 70 c 0
 -1.25 76.212890625 3.787109375 81.25 10 81.25 c 0
65 80 m 1
 70 80 l 1
 70 65 l 1
 5 0 l 1
 0 0 l 1
 0 15 l 1
 65 80 l 1
60 21.25 m 0
 66.212890625 21.25 71.25 16.212890625 71.25 10 c 0
 71.25 3.787109375 66.212890625 -1.25 60 -1.25 c 0
 53.787109375 -1.25 48.75 3.787109375 48.75 10 c 0
 48.75 16.212890625 53.787109375 21.25 60 21.25 c 0
EndSplineSet
EndChar

StartChar: ampersand
Encoding: 38 38 38
Width: 80
VWidth: 0
Flags: HW
LayerCount: 2
Fore
SplineSet
30 100 m 6
 40 100 l 6
 51.0458984375 100 60 91.0458984375 60 80 c 4
 60 68.9541015625 51.0458984375 60 40 60 c 6
 35 60 l 5
 45 45 l 5
 55 60 l 5
 70 60 l 5
 70 55 l 5
 60 45 l 5
 60 15 l 5
 70 5 l 5
 70 0 l 5
 55 0 l 5
 45 15 l 5
 35 0 l 5
 25 0 l 6
 11.193359375 0 0 11.193359375 0 25 c 6
 0 40 l 6
 0 51.0458984375 8.9541015625 60 20 60 c 6
 30 60 l 6
 18.9541015625 60 10 68.9541015625 10 80 c 4
 10 91.0458984375 18.9541015625 100 30 100 c 6
30 90 m 5
 30 70 l 5
 40 70 l 5
 40 90 l 5
 30 90 l 5
20 50 m 5
 20 17.5 l 6
 20 11.9775390625 24.4775390625 7.5 30 7.5 c 6
 40 15 l 5
 40 35 l 5
 25 50 l 5
 20 50 l 5
EndSplineSet
EndChar

StartChar: quotesingle
Encoding: 39 39 39
Width: 80
VWidth: 0
Flags: HW
LayerCount: 2
Fore
SplineSet
39.998046875 121.009765625 m 4
 44.359375 121.009765625 48.1328125 118.5234375 50 114.89453125 c 6
 50 100 l 6
 50 88.9541015625 41.0458984375 80 30 80 c 6
 20 80 l 5
 20 90 l 5
 30 90 l 5
 30 114.90234375 l 6
 31.8681640625 118.526367188 35.6396484375 121.009765625 39.998046875 121.009765625 c 4
EndSplineSet
EndChar

StartChar: parenleft
Encoding: 40 40 40
Width: 80
VWidth: 0
Flags: HW
LayerCount: 2
Fore
SplineSet
55 100 m 6
 60 100 l 5
 60 90 l 5
 55 90 l 5
 55 90.009765625 l 5
 50 90.009765625 39.99609375 81.048828125 40 70 c 6
 40 30 l 6
 39.99609375 18.951171875 50 9.990234375 55 9.990234375 c 5
 55 10 l 5
 60 10 l 5
 60 0 l 5
 55 0 l 6
 40 0 20 17.9091796875 20 40 c 6
 20 60 l 6
 20 82.0908203125 40 100 55 100 c 6
EndSplineSet
EndChar

StartChar: parenright
Encoding: 41 41 41
Width: 80
VWidth: 0
Flags: HW
LayerCount: 2
Fore
SplineSet
25 100 m 6
 40 100 60 82.0908203125 60 60 c 6
 60 40 l 6
 60 17.9091796875 40 0 25 0 c 6
 20 0 l 5
 20 10 l 5
 25 10 l 5
 25 9.990234375 l 5
 30 9.990234375 40.00390625 18.951171875 40 30 c 6
 40 70 l 6
 40.00390625 81.048828125 30 90.009765625 25 90.009765625 c 5
 25 90 l 5
 20 90 l 5
 20 100 l 5
 25 100 l 6
EndSplineSet
EndChar

StartChar: asterisk
Encoding: 42 42 42
Width: 80
VWidth: 0
Flags: HW
LayerCount: 2
Fore
SplineSet
10 80 m 5
 25 80 l 5
 40 65 l 5
 55 80 l 5
 70 80 l 5
 70 75 l 5
 55 60 l 5
 80 60 l 5
 80 50 l 5
 55 50 l 5
 70 35 l 5
 70 30 l 5
 55 30 l 5
 40 45 l 5
 25 30 l 5
 10 30 l 5
 10 35 l 5
 25 50 l 5
 0 50 l 5
 0 60 l 5
 25 60 l 5
 10 75 l 5
 10 80 l 5
EndSplineSet
EndChar

StartChar: plus
Encoding: 43 43 43
Width: 80
VWidth: 0
Flags: HW
LayerCount: 2
Fore
SplineSet
30 80 m 5
 50 80 l 5
 50 60 l 5
 70 60 l 5
 70 50 l 5
 50 50 l 5
 50 30 l 5
 30 30 l 5
 30 50 l 5
 10 50 l 5
 10 60 l 5
 30 60 l 5
 30 80 l 5
EndSplineSet
EndChar

StartChar: comma
Encoding: 44 44 44
Width: 80
VWidth: 0
Flags: HW
LayerCount: 2
Fore
SplineSet
39.998046875 21.009765625 m 0
 44.359375 21.009765625 48.1328125 18.5234375 50 14.89453125 c 2
 50 0 l 2
 50 -11.0458984375 41.0458984375 -20 30 -20 c 2
 20 -20 l 1
 20 -10 l 1
 30 -10 l 1
 30 14.90234375 l 2
 31.8681640625 18.5263671875 35.6396484375 21.009765625 39.998046875 21.009765625 c 0
EndSplineSet
EndChar

StartChar: hyphen
Encoding: 45 45 45
Width: 80
VWidth: 0
Flags: HWO
LayerCount: 2
Fore
SplineSet
70 50 m 5
 0 50 l 5
 0 60 l 5
 70 60 l 5
 70 50 l 5
EndSplineSet
EndChar

StartChar: period
Encoding: 46 46 46
Width: 80
VWidth: 0
Flags: HW
LayerCount: 2
Fore
SplineSet
40.01953125 21.2705078125 m 4
 43.9072265625 21.3349609375 47.677734375 19.1240234375 49.6748046875 15.814453125 c 4
 53.2646484375 10.302734375 50.541015625 2.2099609375 44.5537109375 -0.314453125 c 4
 38.529296875 -3.1796875 30.703125 0.6884765625 29.1171875 7.1103515625 c 4
 27.0537109375 13.8994140625 32.9326171875 21.55078125 40.01953125 21.2705078125 c 4
EndSplineSet
EndChar

StartChar: slash
Encoding: 47 47 47
Width: 80
VWidth: 0
Flags: HW
LayerCount: 2
Fore
SplineSet
70 90 m 5
 70 65 l 5
 5 0 l 5
 0 0 l 5
 0 25 l 5
 65 90 l 5
 70 90 l 5
EndSplineSet
EndChar

StartChar: zero
Encoding: 48 48 48
Width: 80
VWidth: 0
Flags: HW
LayerCount: 2
Fore
SplineSet
35 100 m 4
 50 100 70 82.0908203125 70 60 c 6
 70 40 l 6
 70 17.9091796875 50 0 35 0 c 4
 20 0 0 17.9091796875 0 40 c 6
 0 60 l 6
 0 82.0908203125 20 100 35 100 c 4
35 90.009765625 m 4
 30 90.009765625 19.99609375 81.048828125 20 70 c 6
 20 30 l 6
 19.99609375 18.951171875 30 9.990234375 35 9.990234375 c 4
 40 9.990234375 50.00390625 18.951171875 50 30 c 6
 50 70 l 6
 50.00390625 81.048828125 40 90.009765625 35 90.009765625 c 4
30 60 m 5
 40 60 l 5
 40 40 l 5
 30 40 l 5
 30 60 l 5
EndSplineSet
EndChar

StartChar: one
Encoding: 49 49 49
Width: 80
VWidth: 0
Flags: HW
LayerCount: 2
Fore
SplineSet
35 100 m 5
 50 100 l 5
 50 10 l 5
 70 10 l 5
 70 0 l 5
 10 0 l 5
 10 10 l 5
 30 10 l 5
 30 70 l 5
 10 70 l 5
 10 75 l 5
 35 100 l 5
EndSplineSet
EndChar

StartChar: two
Encoding: 50 50 50
Width: 80
VWidth: 0
Flags: HW
LayerCount: 2
Fore
SplineSet
25 100 m 6
 45 100 l 6
 58.806640625 100 70 88.8076171875 70 75 c 5
 20 25 l 5
 20 10 l 5
 50 10 l 5
 50 20 l 5
 70 20 l 5
 70 0 l 5
 0 0 l 5
 0 25 l 5
 50 75 l 5
 50 90 l 5
 20 90 l 5
 20 80 l 5
 0.52734375 80 l 5
 2.9013671875 91.6318359375 13.12890625 99.990234375 25 100 c 6
EndSplineSet
EndChar

StartChar: three
Encoding: 51 51 51
Width: 80
VWidth: 0
Flags: HW
LayerCount: 2
Fore
SplineSet
20 100 m 6
 50 100 l 6
 61.0458984375 100 70 91.0458984375 70 80 c 6
 70 65 l 5
 55 55 l 5
 70 45 l 5
 70 20 l 6
 70 8.9541015625 61.0458984375 0 50 0 c 6
 20 0 l 6
 8.9541015625 0 0 8.9541015625 0 20 c 5
 20 20 l 5
 20 10 l 5
 50 10 l 5
 50 50 l 5
 20 50 l 5
 20 60 l 5
 50 60 l 5
 50 90 l 5
 20 90 l 5
 20 80 l 5
 0 80 l 5
 0 91.0458984375 8.9541015625 100 20 100 c 6
EndSplineSet
EndChar

StartChar: four
Encoding: 52 52 52
Width: 80
VWidth: 0
Flags: HW
LayerCount: 2
Fore
SplineSet
45 100 m 5
 60 100 l 5
 60 50 l 5
 70 50 l 5
 70 40 l 5
 60 40 l 5
 60 15 l 5
 70 5 l 5
 70 0 l 5
 30 0 l 5
 30 5 l 5
 40 15 l 5
 40 40 l 5
 0 40 l 5
 0 55 l 5
 45 100 l 5
40 75 m 5
 15 50 l 5
 40 50 l 5
 40 75 l 5
EndSplineSet
EndChar

StartChar: five
Encoding: 53 53 53
Width: 80
VWidth: 0
Flags: HW
LayerCount: 2
Fore
SplineSet
0 100 m 5
 70 100 l 5
 70 90 l 5
 20 90 l 5
 20 60 l 5
 50 60 l 6
 61.0458984375 60 70 51.0458984375 70 40 c 6
 70 20 l 6
 70 8.9541015625 61.0458984375 0 50 0 c 6
 20 0 l 6
 8.9541015625 0 0 8.9541015625 0 20 c 5
 20 20 l 5
 20 10 l 5
 50 10 l 5
 50 50 l 5
 0 50 l 5
 0 100 l 5
EndSplineSet
EndChar

StartChar: six
Encoding: 54 54 54
Width: 80
VWidth: 0
Flags: HW
LayerCount: 2
Fore
SplineSet
35 100 m 6
 60 100 l 5
 60 89.33984375 l 5
 35 89.33984375 l 6
 26.1787109375 87.0625 20.01171875 79.1103515625 20 70 c 6
 20 60 l 5
 50 60 l 6
 61.0458984375 60 70 51.0458984375 70 40 c 6
 70 20 l 6
 70 8.9541015625 61.0458984375 0 50 0 c 6
 20 0 l 6
 8.9541015625 0 0 8.9541015625 0 20 c 6
 0 65 l 6
 0 84.330078125 15.669921875 100 35 100 c 6
20 50 m 5
 20 36.6669921875 20 23.3330078125 20 10 c 5
 50 10 l 5
 50 50 l 5
 20 50 l 5
EndSplineSet
EndChar

StartChar: seven
Encoding: 55 55 55
Width: 80
VWidth: 0
Flags: HW
LayerCount: 2
Fore
SplineSet
0 100 m 5
 70 100 l 5
 70 65 l 5
 40 35 l 5
 40 0 l 5
 20 0 l 5
 20 35 l 5
 50 65 l 5
 50 90 l 5
 20 90 l 5
 20 80 l 5
 0 80 l 5
 0 100 l 5
EndSplineSet
EndChar

StartChar: eight
Encoding: 56 56 56
Width: 80
VWidth: 0
Flags: HW
LayerCount: 2
Fore
SplineSet
22.5 100 m 6
 47.5 100 l 6
 59.9267578125 100 70 89.9267578125 70 77.5 c 6
 70 65 l 5
 55 55 l 5
 70 45 l 5
 70 22.5 l 6
 70 10.07421875 59.9267578125 0 47.5 0 c 6
 22.5 0 l 6
 10.0732421875 0 0 10.07421875 0 22.5 c 6
 0 45 l 5
 15 55 l 5
 0 65 l 5
 0 77.5 l 6
 0 89.9267578125 10.0732421875 100 22.5 100 c 6
20 90 m 5
 20 60 l 5
 50 60 l 5
 50 90 l 5
 20 90 l 5
20 50 m 5
 20 10 l 5
 50 10 l 5
 50 50 l 5
 20 50 l 5
EndSplineSet
EndChar

StartChar: nine
Encoding: 57 57 57
Width: 80
VWidth: 0
Flags: HW
LayerCount: 2
Fore
SplineSet
35 0 m 6
 10 0 l 5
 10 10.66015625 l 5
 35 10.66015625 l 6
 43.8212890625 12.9375 49.98828125 20.8896484375 50 30 c 6
 50 50 l 5
 20 50 l 6
 8.958984375 49.6865234375 0 58.9541015625 0 70 c 6
 0 80 l 6
 0 91.0458984375 8.9541015625 100 20 100 c 6
 50 100 l 6
 61.0458984375 100 70 91.0458984375 70 80 c 6
 70 35 l 6
 70 15.669921875 54.330078125 0 35 0 c 6
50 60 m 5
 50 90 l 5
 20 90 l 5
 20 60 l 5
 50 60 l 5
EndSplineSet
EndChar

StartChar: colon
Encoding: 58 58 58
Width: 80
VWidth: 0
Flags: HW
LayerCount: 2
Fore
SplineSet
40 71.25 m 4
 46.212890625 71.25 51.25 66.212890625 51.25 60 c 4
 51.25 53.787109375 46.212890625 48.75 40 48.75 c 4
 33.787109375 48.75 28.75 53.787109375 28.75 60 c 4
 28.75 66.212890625 33.787109375 71.25 40 71.25 c 4
40 21.25 m 0
 46.212890625 21.25 51.25 16.212890625 51.25 10 c 0
 51.25 3.787109375 46.212890625 -1.25 40 -1.25 c 0
 33.787109375 -1.25 28.75 3.787109375 28.75 10 c 0
 28.75 16.212890625 33.787109375 21.25 40 21.25 c 0
EndSplineSet
EndChar

StartChar: semicolon
Encoding: 59 59 59
Width: 80
VWidth: 0
Flags: HW
LayerCount: 2
Fore
SplineSet
40 71.25 m 4
 46.212890625 71.25 51.25 66.212890625 51.25 60 c 4
 51.25 53.787109375 46.212890625 48.75 40 48.75 c 4
 33.787109375 48.75 28.75 53.787109375 28.75 60 c 4
 28.75 66.212890625 33.787109375 71.25 40 71.25 c 4
39.998046875 21.009765625 m 4
 44.359375 21.009765625 48.1328125 18.5234375 50 14.89453125 c 6
 50 0 l 6
 50 -11.0458984375 41.0458984375 -20 30 -20 c 6
 20 -20 l 5
 20 -10 l 5
 30 -10 l 5
 30 14.90234375 l 6
 31.8681640625 18.5263671875 35.6396484375 21.009765625 39.998046875 21.009765625 c 4
EndSplineSet
EndChar

StartChar: less
Encoding: 60 60 60
Width: 80
VWidth: 0
Flags: HW
LayerCount: 2
Fore
SplineSet
55 90 m 5
 70 90 l 5
 70 85 l 5
 30 45 l 5
 70 5 l 5
 70 0 l 5
 55 0 l 5
 10 45 l 5
 55 90 l 5
EndSplineSet
EndChar

StartChar: equal
Encoding: 61 61 61
Width: 80
VWidth: 0
Flags: HW
LayerCount: 2
Fore
SplineSet
10 70 m 5
 70 70 l 5
 70 60 l 5
 10 60 l 5
 10 70 l 5
10 40 m 5
 70 40 l 5
 70 30 l 5
 10 30 l 5
 10 40 l 5
EndSplineSet
EndChar

StartChar: greater
Encoding: 62 62 62
Width: 80
VWidth: 0
Flags: HW
LayerCount: 2
Fore
SplineSet
25 90 m 5
 70 45 l 5
 25 0 l 5
 10 0 l 5
 10 5 l 5
 50 45 l 5
 10 85 l 5
 10 90 l 5
 25 90 l 5
EndSplineSet
EndChar

StartChar: question
Encoding: 63 63 63
Width: 80
VWidth: 0
Flags: HW
LayerCount: 2
Fore
SplineSet
20 100 m 6
 50 100 l 6
 61.0458984375 100 70 91.0458984375 70 80 c 6
 70 75 l 5
 50 55 l 5
 50 30 l 5
 30 30 l 5
 30 55 l 5
 50 75 l 5
 50 90 l 5
 20 90 l 5
 20 70 l 5
 0 70 l 5
 0 80 l 6
 0 91.0458984375 8.9541015625 100 20 100 c 6
39.998046875 21.009765625 m 4
 46.2109375 21.009765625 51.248046875 15.97265625 51.248046875 9.759765625 c 4
 51.248046875 3.546875 46.2109375 -1.490234375 39.998046875 -1.490234375 c 4
 33.78515625 -1.490234375 28.748046875 3.546875 28.748046875 9.759765625 c 4
 28.748046875 15.97265625 33.78515625 21.009765625 39.998046875 21.009765625 c 4
EndSplineSet
EndChar

StartChar: at
Encoding: 64 64 64
Width: 80
VWidth: 0
Flags: HW
LayerCount: 2
Fore
SplineSet
20 90 m 6
 50 90 l 6
 61.0400390625 90 70 81.0400390625 70 70 c 6
 70 40 l 6
 70 28.9599609375 61.0400390625 20 50 20 c 6
 30 20 l 5
 30 60 l 5
 50 60 l 5
 50 70 l 5
 50 80 l 5
 20 80 l 5
 20 70 l 5
 20 20 l 5
 20 10 l 5
 60 10 l 5
 60 0 l 5
 20 0 l 6
 8.9599609375 0 0 8.9599609375 0 20 c 6
 0 70 l 6
 0 81.0400390625 8.9599609375 90 20 90 c 6
EndSplineSet
EndChar

StartChar: A
Encoding: 65 65 65
Width: 80
VWidth: 0
Flags: HW
LayerCount: 2
Fore
SplineSet
35 100 m 0
 50 100 70 82.0908203125 70 60 c 2
 70 0 l 1
 50 0 l 1
 50 40 l 1
 20 40 l 1
 20 0 l 1
 0 0 l 1
 0 60 l 2
 0 82.0908203125 20 100 35 100 c 0
35 90.009765625 m 0
 30 90.009765625 19.99609375 81.048828125 20 70 c 2
 20 50 l 1
 50 50 l 1
 50 70 l 2
 50.00390625 81.048828125 40 90.009765625 35 90.009765625 c 0
EndSplineSet
EndChar

StartChar: B
Encoding: 66 66 66
Width: 80
VWidth: 0
Flags: HW
LayerCount: 2
Fore
SplineSet
0 100 m 5
 50 100 l 6
 61.0458984375 100 70 91.0458984375 70 80 c 6
 70 65 l 5
 55 55 l 5
 70 45 l 5
 70 20 l 6
 70 8.9541015625 61.0458984375 0 50 0 c 6
 0 0 l 5
 0 5 l 5
 10 15 l 5
 10 85 l 5
 0 95 l 5
 0 100 l 5
30 90 m 5
 30 60 l 5
 50 60 l 5
 50 90 l 5
 30 90 l 5
30 50 m 5
 30 10 l 5
 50 10 l 5
 50 50 l 5
 30 50 l 5
EndSplineSet
EndChar

StartChar: C
Encoding: 67 67 67
Width: 80
VWidth: 0
Flags: HW
LayerCount: 2
Fore
SplineSet
35 100 m 6
 45 100 l 6
 53.203125 100 62.89453125 94.6357421875 70 86.16796875 c 5
 70 70 l 5
 60 70 l 5
 60.00390625 81.048828125 50 90.009765625 45 90.009765625 c 5
 45 90 l 5
 35 90 l 5
 35 90.009765625 l 5
 30 90.009765625 19.99609375 81.048828125 20 70 c 6
 20 30 l 6
 19.99609375 18.951171875 30 9.990234375 35 9.990234375 c 5
 35 10 l 5
 45 10 l 5
 45 9.990234375 l 5
 50 9.990234375 60.00390625 18.951171875 60 30 c 5
 70 30 l 5
 70 13.83203125 l 5
 62.89453125 5.3642578125 53.203125 0 45 0 c 6
 35 0 l 6
 20 0 0 17.9091796875 0 40 c 6
 0 60 l 6
 0 82.0908203125 20 100 35 100 c 6
EndSplineSet
EndChar

StartChar: D
Encoding: 68 68 68
Width: 80
VWidth: 0
Flags: HW
LayerCount: 2
Fore
SplineSet
0 100 m 5
 10 100 l 5
 30 100 l 5
 35 100 l 6
 50 100 70 82.0908203125 70 60 c 6
 70 40 l 6
 70 17.9091796875 50 0 35 0 c 6
 30 0 l 5
 10 0 l 5
 0 0 l 5
 0 5 l 5
 10 15 l 5
 10 85 l 5
 0 95 l 5
 0 100 l 5
35 90.009765625 m 5
 35 90 l 5
 30 90 l 5
 30 10 l 5
 35 10 l 5
 35 9.990234375 l 5
 40 9.990234375 50.00390625 18.951171875 50 30 c 6
 50 40 l 5
 50 60 l 5
 50 70 l 6
 50.00390625 81.048828125 40 90.009765625 35 90.009765625 c 5
EndSplineSet
EndChar

StartChar: E
Encoding: 69 69 69
Width: 80
VWidth: 0
Flags: HW
LayerCount: 2
Fore
SplineSet
0 100 m 1
 70 100 l 1
 70 70 l 1
 65 70 l 1
 45 90 l 1
 30 90 l 1
 30 60 l 1
 35 60 l 1
 45 70 l 1
 50 70 l 1
 50 40 l 1
 45 40 l 1
 35 50 l 1
 30 50 l 1
 30 10 l 1
 45 10 l 1
 65 30 l 1
 70 30 l 1
 70 0 l 1
 0 0 l 1
 0 5 l 1
 10 15 l 1
 10 85 l 1
 0 95 l 1
 0 100 l 1
EndSplineSet
EndChar

StartChar: F
Encoding: 70 70 70
Width: 80
VWidth: 0
Flags: HW
LayerCount: 2
Fore
SplineSet
0 100 m 5
 70 100 l 5
 70 70 l 5
 65 70 l 5
 45 90 l 5
 30 90 l 5
 30 60 l 5
 35 60 l 5
 45 70 l 5
 50 70 l 5
 50 40 l 5
 45 40 l 5
 35 50 l 5
 30 50 l 5
 30 15 l 5
 40 5 l 5
 40 0 l 5
 0 0 l 5
 0 5 l 5
 10 15 l 5
 10 85 l 5
 0 95 l 5
 0 100 l 5
EndSplineSet
EndChar

StartChar: G
Encoding: 71 71 71
Width: 80
VWidth: 0
Flags: HW
LayerCount: 2
Fore
SplineSet
35 100 m 6
 45 100 l 6
 53.203125 100 62.89453125 94.6357421875 70 86.16796875 c 5
 70 70 l 5
 60 70 l 5
 60.00390625 81.048828125 50 90.009765625 45 90.009765625 c 5
 45 90 l 5
 35 90 l 5
 35 90.009765625 l 5
 30 90.009765625 19.99609375 81.048828125 20 70 c 6
 20 30 l 6
 19.99609375 18.951171875 30 9.990234375 35 9.990234375 c 5
 35 10 l 5
 50 15 l 5
 50 40 l 5
 40 35 l 5
 30 45 l 5
 30 50 l 5
 70 50 l 5
 70 0 l 5
 65 0 l 5
 55 10 l 5
 45 0 l 5
 35 0 l 6
 20 0 0 17.9091796875 0 40 c 6
 0 60 l 6
 0 82.0908203125 20 100 35 100 c 6
EndSplineSet
EndChar

StartChar: H
Encoding: 72 72 72
Width: 80
VWidth: 0
Flags: HW
LayerCount: 2
Fore
SplineSet
0 100 m 5
 20 100 l 5
 20 60 l 5
 50 60 l 5
 50 100 l 5
 70 100 l 5
 70 0 l 5
 50 0 l 5
 50 50 l 5
 20 50 l 5
 20 0 l 5
 0 0 l 5
 0 100 l 5
EndSplineSet
EndChar

StartChar: I
Encoding: 73 73 73
Width: 80
VWidth: 0
Flags: HW
LayerCount: 2
Fore
SplineSet
20 100 m 1
 60.0009765625 99.9970703125 l 1
 60 95 l 1
 50 85 l 1
 50 15 l 1
 60 5 l 1
 60 0 l 1
 20 0 l 1
 20 5 l 1
 30 15 l 1
 30 85.0029296875 l 1
 20 95.0029296875 l 1
 20 100 l 1
EndSplineSet
EndChar

StartChar: J
Encoding: 74 74 74
Width: 80
VWidth: 0
Flags: HW
LayerCount: 2
Fore
SplineSet
30 100 m 5
 70 100 l 5
 70 95 l 5
 60 85 l 5
 60 22.25 l 5
 59.994140625 22.25 l 5
 59.8505859375 10.2509765625 49.9970703125 0.2939453125 38 0.025390625 c 5
 38 0 l 5
 22.5 0 l 6
 10.22265625 0.005859375 0.1484375 9.9736328125 0.01171875 22.25 c 5
 0 22.25 l 5
 0 40 l 5
 20 40 l 5
 20 10 l 5
 40 10 l 5
 40 85 l 5
 30 95 l 5
 30 100 l 5
EndSplineSet
EndChar

StartChar: K
Encoding: 75 75 75
Width: 80
VWidth: 0
Flags: HW
LayerCount: 2
Fore
SplineSet
0 100 m 5
 30 100 l 5
 30 55 l 5
 50 75 l 5
 50 100 l 5
 70 100 l 5
 70 75 l 5
 45 50 l 5
 70 25 l 5
 70 0 l 5
 50 0 l 5
 50 25 l 5
 30 45 l 5
 30 0 l 5
 0 0 l 5
 0 5 l 5
 10 15 l 5
 10 85 l 5
 0 95 l 5
 0 100 l 5
EndSplineSet
EndChar

StartChar: L
Encoding: 76 76 76
Width: 80
VWidth: 0
Flags: HW
LayerCount: 2
Fore
SplineSet
0 100 m 5
 40 100 l 5
 40 95 l 5
 30 85 l 5
 30 10 l 5
 45 10 l 5
 65 30 l 5
 70 30 l 5
 70 0 l 5
 0 0 l 5
 0 5 l 5
 10 15 l 5
 10 85 l 5
 0 95 l 5
 0 100 l 5
EndSplineSet
EndChar

StartChar: M
Encoding: 77 77 77
Width: 80
VWidth: 0
Flags: HW
LayerCount: 2
Fore
SplineSet
0 100 m 1
 15 100 l 1
 35 70 l 1
 55 100 l 1
 70 100 l 1
 70 0 l 1
 50 0 l 1
 50 65 l 1
 35 45 l 1
 20 65 l 1
 20 0 l 1
 0 0 l 1
 0 100 l 1
EndSplineSet
EndChar

StartChar: N
Encoding: 78 78 78
Width: 80
VWidth: 0
Flags: HW
LayerCount: 2
Fore
SplineSet
0 100 m 5
 15 100 l 5
 50 60 l 5
 50 100 l 5
 70 100 l 5
 70 0 l 5
 50 0 l 5
 50 35 l 5
 20 70 l 5
 20 0 l 5
 0 0 l 5
 0 100 l 5
EndSplineSet
EndChar

StartChar: O
Encoding: 79 79 79
Width: 80
VWidth: 0
Flags: HW
LayerCount: 2
Fore
SplineSet
14.9814453125 100 m 5
 55.01953125 100 l 5
 55.01953125 100 l 5
 47.001953125 100 l 6
 59.703125 99.9990234375 69.9990234375 89.703125 70 77.001953125 c 6
 70 22.998046875 l 6
 69.9990234375 10.296875 59.703125 0 47.001953125 0 c 5
 47.001953125 0 l 5
 22.998046875 0 l 5
 22.998046875 0 l 5
 10.296875 0.0009765625 0.0009765625 10.296875 0 22.998046875 c 6
 0 77.001953125 l 6
 0.0009765625 89.703125 10.296875 100 22.998046875 100 c 6
 14.9814453125 100 l 5
 14.9814453125 100 l 5
49.98046875 90 m 5
 19.9814453125 90 l 5
 19.9814453125 10 l 5
 49.98046875 10 l 5
 49.98046875 90 l 5
EndSplineSet
EndChar

StartChar: P
Encoding: 80 80 80
Width: 80
VWidth: 0
Flags: HW
LayerCount: 2
Fore
SplineSet
0 100 m 5
 30 100 l 5
 45 100 l 6
 58.806640625 100 70 88.806640625 70 75 c 4
 70 61.193359375 58.806640625 50 45 50 c 6
 30 50 l 5
 30 15 l 5
 40 5 l 5
 40 0 l 5
 0 0 l 5
 0 5 l 5
 10 15 l 5
 10 85 l 5
 0 95 l 5
 0 100 l 5
30 90 m 5
 30 60 l 5
 50 60 l 5
 50 90 l 5
 30 90 l 5
EndSplineSet
EndChar

StartChar: Q
Encoding: 81 81 81
Width: 80
VWidth: 0
Flags: HW
LayerCount: 2
Fore
SplineSet
22.998046875 100 m 6
 47.001953125 100 l 6
 59.703125 99.9990234375 69.9990234375 89.703125 70 77.001953125 c 6
 70 22.998046875 l 6
 69.9990234375 12.9609375 63.48828125 4.0830078125 53.916015625 1.0654296875 c 5
 69.98046875 -15 l 5
 69.98046875 -20 l 5
 39.98046875 -20 l 5
 39.98046875 0 l 5
 22.998046875 0 l 6
 10.296875 0.0009765625 0.0009765625 10.296875 0 22.998046875 c 6
 0 77.001953125 l 6
 0.0009765625 89.703125 10.296875 100 22.998046875 100 c 6
19.9814453125 90 m 5
 19.9814453125 10 l 5
 29.98046875 10 l 5
 29.98046875 30 l 5
 34.98046875 30 l 5
 49.98046875 15 l 5
 49.98046875 90 l 5
 19.9814453125 90 l 5
EndSplineSet
EndChar

StartChar: R
Encoding: 82 82 82
Width: 80
VWidth: 0
Flags: HW
LayerCount: 2
Fore
SplineSet
0 100 m 5
 45 100 l 6
 58.806640625 100 70 88.8076171875 70 75 c 4
 70 64.169921875 63.0693359375 55.03515625 53.4365234375 51.5625 c 5
 70 35 l 5
 70 0 l 5
 50 0 l 5
 50 35 l 5
 30 55 l 5
 30 15 l 5
 40 5 l 5
 40 0 l 5
 0 0 l 5
 0 5 l 5
 10 15 l 5
 10 85 l 5
 0 95 l 5
 0 100 l 5
30 90 m 5
 30 60 l 5
 50 60 l 5
 50 90 l 5
 30 90 l 5
EndSplineSet
EndChar

StartChar: S
Encoding: 83 83 83
Width: 80
VWidth: 0
Flags: HW
LayerCount: 2
Fore
SplineSet
25 100 m 6
 45 100 l 6
 58.806640625 100 70 88.806640625 70 75 c 6
 70 70 l 5
 50 70 l 5
 50 90 l 5
 20 90 l 5
 20 75 l 5
 70 25 l 5
 70 11.193359375 58.806640625 0 45 0 c 6
 25 0 l 6
 11.1923828125 0 0 11.193359375 0 25 c 6
 0 30 l 5
 20 30 l 5
 20 10 l 5
 50 10 l 5
 50 25 l 5
 0 75 l 5
 0 88.806640625 11.1923828125 100 25 100 c 6
EndSplineSet
EndChar

StartChar: T
Encoding: 84 84 84
Width: 80
VWidth: 0
Flags: HW
LayerCount: 2
Fore
SplineSet
10 100 m 5
 70 100 l 5
 70 70 l 5
 65 70 l 5
 50 85 l 5
 50 80 l 5
 50 10 l 5
 60 10 l 5
 60 0 l 5
 20 0 l 5
 20 10 l 5
 30 10 l 5
 30 80 l 5
 30 85 l 5
 15 70 l 5
 10 70 l 5
 10 100 l 5
EndSplineSet
EndChar

StartChar: U
Encoding: 85 85 85
Width: 80
VWidth: 0
Flags: HW
LayerCount: 2
Fore
SplineSet
0 99.884765625 m 5
 20.0009765625 100 l 5
 20.0009765625 99.76953125 l 5
 20.0009765625 9.884765625 l 5
 50.0009765625 9.884765625 l 5
 50.0009765625 99.76953125 l 5
 50.0009765625 100 l 5
 70.0009765625 99.884765625 l 5
 70.0009765625 74.3115234375 69.8369140625 48.8701171875 70.0009765625 22.884765625 c 4
 69.9990234375 10.18359375 59.701171875 -0.115234375 47.0009765625 -0.115234375 c 6
 23.0009765625 -0.115234375 l 6
 10.2998046875 -0.1142578125 0.001953125 10.18359375 0.0009765625 22.884765625 c 4
 0.0009765625 48.9189453125 0.162109375 74.2529296875 0 99.884765625 c 5
EndSplineSet
EndChar

StartChar: V
Encoding: 86 86 86
Width: 80
VWidth: 0
Flags: HW
LayerCount: 2
Fore
SplineSet
0 100 m 5
 20 100 l 5
 20 35 l 5
 35 20 l 5
 50 35 l 5
 50 100 l 5
 70 100 l 5
 70 35 l 5
 35 0 l 5
 0 35.0029296875 l 5
 0 100 l 5
EndSplineSet
EndChar

StartChar: W
Encoding: 87 87 87
Width: 80
VWidth: 0
Flags: HW
LayerCount: 2
Fore
SplineSet
0 100 m 5
 20 100 l 5
 20 30 l 5
 30 30 l 5
 30 60 l 5
 40 60 l 5
 40 30 l 5
 50 30 l 5
 50 100 l 5
 70 100 l 5
 70 23 l 6
 69.9990234375 10.298828125 59.703125 0 47.001953125 0 c 5
 47.001953125 0 l 5
 40 0 l 5
 40 20 l 5
 30 20 l 5
 30 0 l 5
 23 0 l 5
 23 0 l 5
 10.298828125 0.0009765625 0.0009765625 10.298828125 0 23 c 6
 0 100 l 5
EndSplineSet
EndChar

StartChar: X
Encoding: 88 88 88
Width: 80
VWidth: 0
Flags: HW
LayerCount: 2
Fore
SplineSet
0 100 m 5
 20 100 l 5
 20 85 l 5
 35 65.0029296875 l 5
 50 85.0029296875 l 5
 50 100 l 5
 70 100 l 5
 70 85 l 5
 45 50 l 5
 70 15 l 5
 70 0 l 5
 50 0 l 5
 50 15 l 5
 35 35 l 5
 20 15 l 5
 20 0 l 5
 0 0 l 5
 0 15 l 5
 25 50 l 5
 0 85 l 5
 0 100 l 5
EndSplineSet
EndChar

StartChar: Y
Encoding: 89 89 89
Width: 80
VWidth: 0
Flags: HW
LayerCount: 2
Fore
SplineSet
0 100 m 5
 20 100 l 5
 20 60 l 5
 40 60 l 5
 40 100 l 5
 60 100 l 5
 60 65 l 5
 40 45 l 5
 40 15 l 5
 50 5 l 5
 50 0 l 5
 10 0 l 5
 10 5 l 5
 20 15 l 5
 20 45 l 5
 0 65 l 5
 0 100 l 5
EndSplineSet
EndChar

StartChar: Z
Encoding: 90 90 90
Width: 80
VWidth: 0
Flags: HW
LayerCount: 2
Fore
SplineSet
0 100 m 5
 70 100 l 5
 70 75 l 5
 20 25 l 5
 20 10 l 5
 45 10 l 5
 65 30 l 5
 70 30 l 5
 70 0 l 5
 0 0 l 5
 0 24.9990234375 l 5
 50 74.9990234375 l 5
 50 90 l 5
 25 90 l 5
 5 70 l 5
 0 70 l 5
 0 100 l 5
EndSplineSet
EndChar

StartChar: bracketleft
Encoding: 91 91 91
Width: 80
VWidth: 0
Flags: HW
LayerCount: 2
Fore
SplineSet
10 100 m 1
 50 100 l 1
 50 90 l 1
 30 90 l 1
 30 10 l 1
 50 10 l 1
 50 0 l 1
 10 0 l 1
 10 100 l 1
EndSplineSet
EndChar

StartChar: backslash
Encoding: 92 92 92
Width: 80
VWidth: 0
Flags: HW
LayerCount: 2
Fore
SplineSet
0 90 m 5
 5 90 l 5
 70 25 l 5
 70 0 l 5
 65 0 l 5
 0 65 l 5
 0 90 l 5
EndSplineSet
EndChar

StartChar: bracketright
Encoding: 93 93 93
Width: 80
VWidth: 0
Flags: HW
LayerCount: 2
Fore
SplineSet
60 100 m 5
 60 0 l 5
 20 0 l 5
 20 10 l 5
 40 10 l 5
 40 90 l 5
 20 90 l 5
 20 100 l 5
 60 100 l 5
EndSplineSet
EndChar

StartChar: asciicircum
Encoding: 94 94 94
Width: 80
VWidth: 0
Flags: HW
LayerCount: 2
Fore
SplineSet
35 130 m 1
 70 95 l 1
 70 90 l 1
 55 90 l 1
 35 110 l 1
 35 110 l 1
 15 90 l 1
 0 90 l 1
 0 95 l 1
 35 130 l 1
EndSplineSet
EndChar

StartChar: underscore
Encoding: 95 95 95
Width: 80
VWidth: 0
Flags: HW
LayerCount: 2
Fore
SplineSet
0 0 m 5
 0 10 l 5
 80 10 l 5
 80 0 l 5
 0 0 l 5
EndSplineSet
EndChar

StartChar: grave
Encoding: 96 96 96
Width: 80
VWidth: 0
Flags: HW
LayerCount: 2
Fore
SplineSet
30.001953125 120 m 4
 34.3603515625 120 38.1318359375 117.516601562 40 113.892578125 c 6
 40 98.892578125 l 5
 50 98.892578125 l 5
 50 88.892578125 l 5
 40 88.892578125 l 6
 28.9541015625 88.892578125 20 97.8466796875 20 108.892578125 c 6
 20 113.884765625 l 6
 21.8671875 117.513671875 25.640625 120 30.001953125 120 c 4
EndSplineSet
EndChar

StartChar: a
Encoding: 97 97 97
Width: 80
VWidth: 0
Flags: HW
LayerCount: 2
Fore
SplineSet
10 70 m 5
 35 70 l 6
 48.806640625 70 60 58.806640625 60 45 c 6
 60 15 l 5
 70 5 l 5
 70 0 l 5
 55 0 l 5
 45 15 l 5
 35 0 l 5
 25 0 l 6
 11.193359375 0 0 11.193359375 0 25 c 4
 0 38.806640625 11.193359375 50 25 50 c 6
 40 50 l 5
 40 60 l 5
 10 60 l 5
 10 70 l 5
20 40 m 5
 20 10 l 5
 40 10 l 5
 40 40 l 5
 20 40 l 5
EndSplineSet
EndChar

StartChar: b
Encoding: 98 98 98
Width: 80
VWidth: 0
Flags: HW
LayerCount: 2
Fore
SplineSet
0 100 m 5
 30 100 l 5
 30 70 l 5
 52.0908203125 70 70 52.0908203125 70 30 c 6
 70 25 l 6
 70 11.193359375 58.806640625 0 45 0 c 6
 10 0 l 5
 10 15 l 5
 10 64.5986328125 l 5
 10 85 l 5
 0 95 l 5
 0 100 l 5
30 60.009765625 m 5
 30 40 l 5
 30 10 l 5
 50 10 l 5
 50 40 l 6
 50.00390625 51.048828125 41.048828125 60.009765625 30 60.009765625 c 5
EndSplineSet
EndChar

StartChar: c
Encoding: 99 99 99
Width: 80
VWidth: 0
Flags: HW
LayerCount: 2
Fore
SplineSet
25 70 m 6
 45.505859375 70 l 6
 57.3857421875 70 67.6240234375 61.6396484375 70 50 c 5
 55.482421875 50 l 5
 53.19921875 56.0146484375 47.439453125 59.994140625 41.005859375 60 c 6
 20 60 l 5
 20 10 l 5
 41.005859375 10 l 6
 47.439453125 10.009765625 53.19921875 13.9853515625 55.482421875 20 c 5
 70 20 l 5
 67.6240234375 8.3603515625 57.3857421875 0 45.505859375 0 c 6
 25 0 l 6
 11.193359375 0 0 11.193359375 0 25 c 6
 0 45 l 6
 0 58.806640625 11.193359375 70 25 70 c 6
EndSplineSet
EndChar

StartChar: d
Encoding: 100 100 100
Width: 80
VWidth: 0
Flags: HW
LayerCount: 2
Fore
SplineSet
30 99.984375 m 5
 60 100 l 5
 60 15 l 5
 70 5 l 5
 70 0 l 5
 55 0 l 5
 45 15.0029296875 l 5
 35 0.0029296875 l 5
 25 0.0029296875 l 6
 11.193359375 0.0029296875 0 11.1962890625 0 25.0029296875 c 6
 0 29.994140625 l 5
 0 29.994140625 l 5
 0.0048828125 52.0810546875 17.912109375 69.984375 40 69.984375 c 5
 40 69.984375 l 5
 40 84.984375 l 5
 30 94.984375 l 5
 30 99.984375 l 5
40 59.984375 m 5
 40 59.9755859375 l 5
 28.951171875 59.97265625 19.99609375 51.013671875 20 39.96484375 c 6
 20 9.984375 l 5
 40 9.984375 l 5
 40 59.984375 l 5
EndSplineSet
EndChar

StartChar: e
Encoding: 101 101 101
Width: 80
VWidth: 0
Flags: HW
LayerCount: 2
Fore
SplineSet
25 70 m 6
 45 70 l 6
 58.806640625 70 70 58.806640625 70 45 c 6
 70 40 l 5
 20 40 l 5
 20 10 l 5
 41.005859375 10 l 6
 47.439453125 10.009765625 53.19921875 13.9853515625 55.482421875 20 c 5
 70 20 l 5
 67.6240234375 8.3603515625 57.3857421875 0 45.505859375 0 c 6
 25 0 l 6
 11.193359375 0 0 11.193359375 0 25 c 6
 0 45 l 5
 0.001953125 45 l 5
 0.001953125 58.806640625 11.193359375 70 25 70 c 6
20.001953125 60 m 5
 20.001953125 50 l 5
 50 50 l 5
 50 60 l 5
 20.001953125 60 l 5
EndSplineSet
EndChar

StartChar: f
Encoding: 102 102 102
Width: 80
VWidth: 0
Flags: HW
LayerCount: 2
Fore
SplineSet
45 100 m 4
 58.806640625 100 70 88.806640625 70 75 c 6
 70 70 l 5
 60 70 l 5
 60 81.0458984375 51.0458984375 90 40 90 c 5
 40 60 l 5
 50 60 l 5
 50 50 l 5
 40 50 l 5
 40 15 l 5
 50 5 l 5
 50 0 l 5
 10 0 l 5
 10 5 l 5
 20 15 l 5
 20 50 l 5
 10 50 l 5
 10 60 l 5
 20 60 l 5
 20 75 l 6
 20 88.806640625 31.193359375 100 45 100 c 4
EndSplineSet
EndChar

StartChar: g
Encoding: 103 103 103
Width: 80
VWidth: 0
Flags: HW
LayerCount: 2
Fore
SplineSet
25 70 m 6
 35 70 l 5
 45 55 l 5
 55 70 l 5
 70 70 l 5
 70 65 l 5
 60 55 l 5
 60 -5 l 6
 60 -18.806640625 48.806640625 -30 35 -30 c 6
 24.494140625 -30 l 6
 12.6142578125 -30 2.3759765625 -21.6396484375 0 -10 c 5
 14.517578125 -10 l 5
 16.80078125 -16.0146484375 22.560546875 -19.990234375 28.994140625 -20 c 6
 40 -20 l 5
 40 10 l 5
 25 10 l 6
 11.193359375 10 0 21.193359375 0 35 c 6
 0 45 l 6
 0 58.806640625 11.193359375 70 25 70 c 6
20 60 m 5
 20 20 l 5
 40 20 l 5
 40 50 l 5
 40 60 l 5
 20 60 l 5
EndSplineSet
EndChar

StartChar: h
Encoding: 104 104 104
Width: 80
VWidth: 0
Flags: HW
LayerCount: 2
Fore
SplineSet
0 100 m 5
 30 100 l 5
 30 55 l 5
 45 70 l 5
 58.806640625 70 70 58.806640625 70 45 c 6
 70 0 l 5
 50 0 l 5
 50 65 l 5
 30 45 l 5
 30 0 l 5
 0 0 l 5
 0 5 l 5
 10 15 l 5
 10 85 l 5
 0 95 l 5
 0 100 l 5
EndSplineSet
EndChar

StartChar: i
Encoding: 105 105 105
Width: 80
VWidth: 0
Flags: HW
LayerCount: 2
Fore
SplineSet
40 101.25 m 4
 46.2099609375 101.25 51.25 96.2099609375 51.25 90 c 4
 51.25 90 51.25 90 51.25 90 c 4
 51.25 90 51.25 90 51.25 90 c 4
 51.25 83.7900390625 46.2099609375 78.75 40 78.75 c 4
 40 78.75 40 78.75 40 78.75 c 4
 33.7900390625 78.75 28.75 83.7900390625 28.75 90 c 4
 28.75 90 28.75 90 28.75 90 c 4
 28.75 96.2099609375 33.7900390625 101.25 40 101.25 c 4
20 70 m 5
 50 70 l 5
 50 15 l 5
 60 5 l 5
 60 0 l 5
 20 0 l 5
 20 5 l 5
 30 15 l 5
 30 55 l 5
 20 65 l 5
 20 70 l 5
EndSplineSet
EndChar

StartChar: j
Encoding: 106 106 106
Width: 80
VWidth: 0
Flags: HW
LayerCount: 2
Fore
SplineSet
50 101.25 m 0
 56.212890625 101.25 61.25 96.212890625 61.25 90 c 0
 61.25 83.787109375 56.212890625 78.75 50 78.75 c 0
 43.787109375 78.75 38.75 83.787109375 38.75 90 c 0
 38.75 96.212890625 43.787109375 101.25 50 101.25 c 0
30 70 m 1
 60 70 l 1
 60 -5 l 2
 60 -18.806640625 48.806640625 -30 35 -30 c 2
 25 -30 l 2
 11.1923828125 -30 0 -18.806640625 0 -5 c 2
 0 0 l 1
 20 0 l 1
 20 -20 l 1
 40 -20 l 1
 40 55 l 1
 30 65 l 1
 30 70 l 1
EndSplineSet
EndChar

StartChar: k
Encoding: 107 107 107
Width: 80
VWidth: 0
Flags: HW
LayerCount: 2
Fore
SplineSet
0 100 m 5
 30 100 l 5
 30 45 l 5
 55 70 l 5
 70 70 l 5
 70 65 l 5
 45 40 l 5
 70 15 l 5
 70 0 l 5
 50 0 l 5
 50 15 l 5
 30 35 l 5
 30 0 l 5
 0 0 l 5
 0 5 l 5
 10 15 l 5
 10 85 l 5
 0 95 l 5
 0 100 l 5
EndSplineSet
EndChar

StartChar: l
Encoding: 108 108 108
Width: 80
VWidth: 0
Flags: HW
LayerCount: 2
Fore
SplineSet
20 100 m 5
 50 100 l 5
 50 15 l 5
 60 5 l 5
 60 0 l 5
 20 0 l 5
 20 5 l 5
 30 15 l 5
 30 85 l 5
 20 95 l 5
 20 100 l 5
EndSplineSet
EndChar

StartChar: m
Encoding: 109 109 109
Width: 80
VWidth: 0
Flags: HW
LayerCount: 2
Fore
SplineSet
0 70 m 5
 25 70 l 5
 35 60 l 5
 45 70 l 5
 58.806640625 70 70 58.806640625 70 45 c 6
 70 0 l 5
 50 0 l 5
 50 50 l 5
 40 50 l 5
 40 10 l 5
 30 10 l 5
 30 50 l 5
 20 50 l 5
 20 0 l 5
 0 0 l 5
 0 70 l 5
EndSplineSet
EndChar

StartChar: n
Encoding: 110 110 110
Width: 80
VWidth: 0
Flags: HW
LayerCount: 2
Fore
SplineSet
0 70 m 1
 15 70 l 1
 25 55 l 1
 35 70 l 1
 45 70 l 2
 58.806640625 70 70 58.806640625 70 45 c 2
 70 0 l 1
 50 0 l 1
 50 52.34765625 l 2
 50 57.87109375 45.5224609375 62.34765625 40 62.34765625 c 2
 30 55 l 1
 30 0 l 1
 10 0 l 1
 10 55 l 1
 0 65 l 1
 0 70 l 1
EndSplineSet
EndChar

StartChar: o
Encoding: 111 111 111
Width: 80
VWidth: 0
Flags: HW
LayerCount: 2
Fore
SplineSet
25 70 m 6
 45 70 l 6
 58.806640625 70 70 58.806640625 70 45 c 6
 70 25 l 6
 70 11.193359375 58.806640625 0 45 0 c 6
 25 0 l 6
 11.193359375 0 0 11.193359375 0 25 c 6
 0 45 l 6
 0 58.806640625 11.193359375 70 25 70 c 6
20 60 m 5
 20 10 l 5
 50 10 l 5
 50 60 l 5
 20 60 l 5
EndSplineSet
EndChar

StartChar: p
Encoding: 112 112 112
Width: 80
VWidth: 0
Flags: HW
LayerCount: 2
Fore
SplineSet
0 70 m 5
 15 70 l 5
 25 55 l 5
 35 70 l 5
 45 70 l 6
 58.806640625 70 70 58.806640625 70 45 c 6
 70 25 l 6
 70 11.193359375 58.806640625 0 45 0 c 6
 30 0 l 5
 30 -15 l 5
 40 -25 l 5
 40 -30 l 5
 0 -30 l 5
 0 -25 l 5
 10 -15 l 5
 10 55 l 5
 0 65 l 5
 0 70 l 5
40 62.5 m 6
 30 55 l 5
 30 10 l 5
 50 10 l 5
 50 52.5 l 6
 50 58.0224609375 45.5224609375 62.5 40 62.5 c 6
EndSplineSet
EndChar

StartChar: q
Encoding: 113 113 113
Width: 80
VWidth: 0
Flags: HW
LayerCount: 2
Fore
SplineSet
70 70 m 5
 70 65 l 5
 60 55 l 5
 60 -15 l 5
 70 -25 l 5
 70 -30 l 5
 30 -30 l 5
 30 -25 l 5
 40 -15 l 5
 40 0 l 5
 25 0 l 6
 11.193359375 0 0 11.193359375 0 25 c 6
 0 45 l 6
 0 58.806640625 11.193359375 70 25 70 c 6
 35 70 l 5
 45 55 l 5
 55 70 l 5
 70 70 l 5
30 62.5 m 6
 24.4775390625 62.5 20 58.0224609375 20 52.5 c 6
 20 10 l 5
 40 10 l 5
 40 55 l 5
 30 62.5 l 6
EndSplineSet
EndChar

StartChar: r
Encoding: 114 114 114
Width: 80
VWidth: 0
Flags: HW
LayerCount: 2
Fore
SplineSet
0 70 m 5
 15 70 l 5
 25 55 l 5
 35 70 l 5
 45 70 l 6
 58.7998046875 70 70 58.7998046875 70 45 c 4
 70 45 70 45 70 45 c 6
 70 40 l 5
 50 40 l 5
 50 45 l 5
 50 60 l 5
 45 60 l 5
 30 45 l 5
 30 15 l 5
 40 5 l 5
 40 0 l 5
 0 0 l 5
 0 5 l 5
 10 15 l 5
 10 55 l 5
 0 65 l 5
 0 70 l 5
EndSplineSet
EndChar

StartChar: s
Encoding: 115 115 115
Width: 80
VWidth: 0
Flags: HW
LayerCount: 2
Fore
SplineSet
25 70 m 6
 45 70 l 6
 56.87109375 69.9892578125 67.625 61.630859375 70 50 c 5
 55 50 l 5
 52.8828125 55.986328125 46.3486328125 60 40 60 c 6
 20 60 l 5
 20 40 l 5
 45 40 l 6
 58.806640625 40 70 30 70 20 c 4
 70 10 58.806640625 0 45 0 c 6
 25 0 l 6
 13.1279296875 0.009765625 2.375 8.3681640625 0 20 c 5
 15 20 l 5
 17.1162109375 14.013671875 23.6513671875 10 30 10 c 6
 50 10 l 5
 50 30 l 5
 25 30 l 6
 11.193359375 30 0 40 0 50 c 4
 0 60 11.193359375 70 25 70 c 6
EndSplineSet
EndChar

StartChar: t
Encoding: 116 116 116
Width: 80
VWidth: 0
Flags: HW
LayerCount: 2
Fore
SplineSet
35 100 m 5
 40 100 l 5
 40 70 l 5
 60 70 l 5
 60 60 l 5
 40 60 l 5
 40 10 l 5
 50 10 l 5
 50 20 l 5
 70 20 l 5
 70 8.9541015625 58.806640625 0 45 0 c 4
 31.193359375 0 20 8.9541015625 20 20 c 6
 20 60 l 5
 0 60 l 5
 0 70 l 5
 20 70 l 5
 20 85 l 5
 35 100 l 5
EndSplineSet
EndChar

StartChar: u
Encoding: 117 117 117
Width: 80
VWidth: 0
Flags: HW
LayerCount: 2
Fore
SplineSet
70 0 m 5
 55 0 l 5
 45 15 l 5
 35 0 l 5
 25 0 l 6
 11.193359375 0 0 11.193359375 0 25 c 6
 0 70 l 5
 20 70 l 5
 20 17.65234375 l 6
 20 12.12890625 24.4765625 7.65234375 30 7.65234375 c 6
 40 15 l 5
 40 70 l 5
 60 70 l 5
 60 15 l 5
 70 5 l 5
 70 0 l 5
EndSplineSet
EndChar

StartChar: v
Encoding: 118 118 118
Width: 80
VWidth: 0
Flags: HW
LayerCount: 2
Fore
SplineSet
0 70 m 5
 20 70 l 5
 20 20 l 5
 40 20 l 5
 40 70 l 5
 60 70 l 5
 60 25 l 5
 35 0 l 5
 25 0 l 5
 0 25 l 5
 0 70 l 5
EndSplineSet
EndChar

StartChar: w
Encoding: 119 119 119
Width: 80
VWidth: 0
Flags: HW
LayerCount: 2
Fore
SplineSet
0 70 m 5
 20 70 l 5
 20 20 l 5
 30 20 l 5
 30 60 l 5
 40 60 l 5
 40 20 l 5
 50 20 l 5
 50 70 l 5
 70 70 l 5
 70 25 l 6
 70 11.1923828125 58.8076171875 0 45 0 c 5
 35 10 l 5
 25 0 l 5
 11.1923828125 0 -0.0009765625 11.1923828125 0 25 c 6
 0 70 l 5
EndSplineSet
EndChar

StartChar: x
Encoding: 120 120 120
Width: 80
VWidth: 0
Flags: HW
LayerCount: 2
Fore
SplineSet
0 70 m 5
 15 70 l 5
 35 50 l 5
 35 50 l 5
 55 70 l 5
 70 70 l 5
 70 65 l 5
 40 35 l 5
 50 25 l 5
 70 5 l 5
 70 0 l 5
 55 0 l 5
 35 20 l 5
 35 20 l 5
 15 0 l 5
 0 0 l 5
 0 5 l 5
 20 25 l 5
 30 35 l 5
 0 65 l 5
 0 70 l 5
EndSplineSet
EndChar

StartChar: y
Encoding: 121 121 121
Width: 80
VWidth: 0
Flags: HW
LayerCount: 2
Fore
SplineSet
0 70 m 5
 20 70 l 5
 20 20 l 5
 50 20 l 5
 50 70 l 5
 70 70 l 5
 70 -5 l 6
 70 -18.806640625 58.806640625 -30 45 -30 c 6
 25 -30 l 6
 11.193359375 -30 0 -21.0458984375 0 -10 c 5
 20 -10 l 5
 20 -20 l 5
 50 -20 l 5
 50 10 l 5
 25 10 l 6
 11.193359375 10 0 21.193359375 0 35 c 6
 0 70 l 5
EndSplineSet
EndChar

StartChar: z
Encoding: 122 122 122
Width: 80
VWidth: 0
Flags: HW
LayerCount: 2
Fore
SplineSet
0 70 m 5
 70 70 l 5
 70 65 l 5
 20 10 l 5
 50 10 l 5
 50 20 l 5
 70 20 l 5
 70 0 l 5
 0 0 l 5
 0 15 l 5
 40 55 l 5
 40 60 l 5
 20 60 l 5
 20 50 l 5
 0 50 l 5
 0 70 l 5
EndSplineSet
EndChar

StartChar: braceleft
Encoding: 123 123 123
Width: 80
VWidth: 0
Flags: HW
LayerCount: 2
Fore
SplineSet
53.0166015625 100 m 6
 70 99.9814453125 l 5
 70 90 l 5
 50 90 l 5
 50 64.9833984375 l 5
 35 54.9833984375 l 5
 50 44.9833984375 l 5
 50 10 l 5
 70 10 l 5
 70 0 l 5
 53.0166015625 0 l 6
 40.31640625 0.0009765625 30.01953125 10.296875 30.0185546875 22.998046875 c 6
 30.0185546875 49.9814453125 l 5
 10 49.9814453125 l 5
 10 59.9814453125 l 5
 30.0185546875 59.9814453125 l 5
 30.0185546875 77.001953125 l 6
 30.01953125 89.703125 40.31640625 100 53.0166015625 100 c 6
EndSplineSet
EndChar

StartChar: bar
Encoding: 124 124 124
Width: 80
VWidth: 0
Flags: HW
LayerCount: 2
Fore
SplineSet
30 100 m 5
 50 100 l 5
 50 60 l 5
 30 60 l 5
 30 100 l 5
30 50 m 5
 50 50 l 5
 50 0 l 5
 30 0 l 5
 30 50 l 5
EndSplineSet
EndChar

StartChar: braceright
Encoding: 125 125 125
Width: 80
VWidth: 0
Flags: HW
LayerCount: 2
Fore
SplineSet
26.9833984375 100 m 6
 39.68359375 100 49.9794921875 89.703125 49.98046875 77.001953125 c 6
 49.98046875 59.9814453125 l 5
 70 59.9814453125 l 5
 70 49.9814453125 l 5
 49.98046875 49.9814453125 l 5
 49.98046875 22.998046875 l 6
 49.9794921875 10.296875 39.68359375 0.0009765625 26.9833984375 0 c 6
 10 0 l 5
 10 10 l 5
 30 10 l 5
 30 44.9833984375 l 5
 45 54.9833984375 l 5
 30 64.9833984375 l 5
 30 90 l 5
 10 90 l 5
 10 99.9814453125 l 5
 26.9833984375 100 l 6
EndSplineSet
EndChar

StartChar: asciitilde
Encoding: 126 126 126
Width: 80
VWidth: 0
Flags: HW
LayerCount: 2
Fore
SplineSet
15 110 m 5
 35 110 l 5
 45 95 l 5
 55 110 l 5
 70 110 l 5
 70 105 l 5
 55 90 l 5
 35 90 l 5
 25 105 l 5
 15 90 l 5
 0 90 l 5
 0 95 l 5
 15 110 l 5
EndSplineSet
EndChar

StartChar: copyright
Encoding: 169 169 169
Width: 80
VWidth: 0
Flags: HW
LayerCount: 2
Fore
SplineSet
35 100 m 4
 54.3203125 100 70 84.3203125 70 65 c 6
 70 35 l 6
 70 15.6796875 54.3203125 0 35 0 c 4
 15.6796875 0 0 15.6796875 0 35 c 6
 0 65 l 6
 0 84.3203125 15.6796875 100 35 100 c 4
35 92.5 m 4
 19.8203125 92.5 7.5 80.1796875 7.5 65 c 6
 7.5 35 l 6
 7.5 19.8203125 19.8203125 7.5 35 7.5 c 4
 50.1796875 7.5 62.5 19.8203125 62.5 35 c 6
 62.5 65 l 6
 62.5 80.1796875 50.1796875 92.5 35 92.5 c 4
35 77.5 m 4
 43.2802734375 77.5 50 70.7802734375 50 62.5 c 6
 50 60 l 5
 42.490234375 60 l 5
 42.490234375 62.5 l 6
 42.3564453125 66.4990234375 39.0009765625 69.7470703125 35 69.75 c 4
 31 69.74609375 27.6455078125 66.498046875 27.51171875 62.5 c 5
 27.51171875 62.5 l 5
 27.51171875 37.5 l 5
 27.51171875 37.5 l 5
 27.6455078125 33.501953125 31 30.25390625 35 30.25 c 4
 39.0009765625 30.2529296875 42.3564453125 33.5009765625 42.490234375 37.5 c 6
 42.490234375 40 l 5
 50 40 l 5
 50 37.5 l 6
 50 29.2197265625 43.2802734375 22.5 35 22.5 c 4
 26.7197265625 22.5 20 29.2197265625 20 37.5 c 6
 20 62.5 l 6
 20 70.7802734375 26.7197265625 77.5 35 77.5 c 4
EndSplineSet
EndChar

StartChar: guillemotleft
Encoding: 171 171 171
Width: 80
VWidth: 0
Flags: HW
LayerCount: 2
Fore
SplineSet
30 90 m 5
 45 90 l 5
 15 45 l 5
 45 0 l 5
 30 0 l 5
 0 45 l 5
 30 90 l 5
55 90 m 5
 70 90 l 5
 40 45 l 5
 70 0 l 5
 55 0 l 5
 25 45 l 5
 55 90 l 5
EndSplineSet
EndChar

StartChar: guillemotright
Encoding: 187 187 187
Width: 80
VWidth: 0
Flags: HW
LayerCount: 2
Fore
SplineSet
40 90 m 5
 70 45 l 5
 40 0 l 5
 25 0 l 5
 55 45 l 5
 25 90 l 5
 40 90 l 5
15 90 m 5
 45 45 l 5
 15 0 l 5
 0 0 l 5
 30 45 l 5
 0 90 l 5
 15 90 l 5
EndSplineSet
EndChar

StartChar: Agrave
Encoding: 192 192 192
Width: 80
VWidth: 0
Flags: HW
LayerCount: 2
Fore
SplineSet
20 120 m 5
 35 120 l 5
 50 105 l 5
 50 100 l 5
 35 100 l 5
 20 115 l 5
 20 120 l 5
35 90 m 4
 50 90 70 72.0908203125 70 50 c 6
 70 0 l 5
 50 0 l 5
 50 40 l 5
 20 40 l 5
 20 0 l 5
 0 0 l 5
 0 50 l 6
 0 72.0908203125 20 90 35 90 c 4
35 80.009765625 m 4
 30 80.009765625 20 71.048828125 20 60 c 6
 20 50 l 5
 50 50 l 5
 50 60 l 6
 50.00390625 71.048828125 40 80.009765625 35 80.009765625 c 4
EndSplineSet
EndChar

StartChar: Aacute
Encoding: 193 193 193
Width: 80
VWidth: 0
Flags: HW
LayerCount: 2
Fore
SplineSet
35 120 m 5
 50 120 l 5
 50 115 l 5
 35 100 l 5
 20 100 l 5
 20 105 l 5
 35 120 l 5
35 90 m 4
 50 90 70 72.0908203125 70 50 c 6
 70 0 l 5
 50 0 l 5
 50 40 l 5
 20 40 l 5
 20 0 l 5
 0 0 l 5
 0 50 l 6
 0 72.0908203125 20 90 35 90 c 4
35 80.009765625 m 4
 30 80.009765625 20 71.048828125 20 60 c 6
 20 50 l 5
 50 50 l 5
 50 60 l 6
 50.00390625 71.048828125 40 80.009765625 35 80.009765625 c 4
EndSplineSet
EndChar

StartChar: Acircumflex
Encoding: 194 194 194
Width: 80
VWidth: 0
Flags: HW
LayerCount: 2
Fore
SplineSet
34.98046875 130 m 1
 59.98046875 105 l 1
 59.98046875 100 l 1
 45 100 l 1
 34.98046875 115 l 1
 25 100 l 1
 9.98046875 100 l 1
 9.98046875 105 l 1
 34.98046875 130 l 1
35.0009765625 90 m 0
 50.0009765625 90 70.0009765625 72.0908203125 70.0009765625 50 c 2
 70.0009765625 0 l 1
 50.0009765625 0 l 1
 50.0009765625 40 l 1
 20.0009765625 40 l 1
 20.0009765625 0 l 1
 0.0009765625 0 l 1
 0.0009765625 50 l 2
 0.0009765625 72.0908203125 20.0009765625 90 35.0009765625 90 c 0
35.0009765625 80.009765625 m 0
 30.0009765625 80.009765625 20.0009765625 71.048828125 20.0009765625 60 c 2
 20.0009765625 50 l 1
 50.0009765625 50 l 1
 50.0009765625 60 l 2
 50.0048828125 71.048828125 40.0009765625 80.009765625 35.0009765625 80.009765625 c 0
EndSplineSet
EndChar

StartChar: Atilde
Encoding: 278 195 195
Width: 80
VWidth: 0
Flags: HW
LayerCount: 2
Fore
SplineSet
25 130 m 1
 40 115 l 1
 45 120 l 1
 55 130 l 1
 60 130 l 1
 60 120 l 1
 60 115 l 1
 45 100 l 1
 35 100 l 1
 25 115 l 1
 15 100 l 1
 10 100 l 1
 10 110 l 1
 10 115 l 1
 25 130 l 1
35 90 m 0
 50 90 70 72.0908203125 70 50 c 2
 70 0 l 1
 50 0 l 1
 50 40 l 1
 20 40 l 1
 20 0 l 1
 0 0 l 1
 0 50 l 2
 0 72.0908203125 20 90 35 90 c 0
35 80.009765625 m 0
 30 80.009765625 20 71.048828125 20 60 c 2
 20 50 l 1
 50 50 l 1
 50 60 l 2
 50.00390625 71.048828125 40 80.009765625 35 80.009765625 c 0
EndSplineSet
EndChar

StartChar: Adieresis
Encoding: 196 196 196
Width: 80
VWidth: 0
Flags: HW
LayerCount: 2
Fore
SplineSet
10 120 m 5
 30 120 l 5
 30 110 l 5
 10 110 l 5
 10 120 l 5
40 120 m 5
 60 120 l 5
 60 110 l 5
 40 110 l 5
 40 120 l 5
35 90 m 4
 50 90 70 72.0908203125 70 50 c 6
 70 0 l 5
 50 0 l 5
 50 40 l 5
 20 40 l 5
 20 0 l 5
 0 0 l 5
 0 50 l 6
 0 72.0908203125 20 90 35 90 c 4
35 80.009765625 m 4
 30 80.009765625 20 71.048828125 20 60 c 6
 20 50 l 5
 50 50 l 5
 50 60 l 6
 50.00390625 71.048828125 40 80.009765625 35 80.009765625 c 4
EndSplineSet
EndChar

StartChar: AE
Encoding: 198 198 198
Width: 80
VWidth: 0
Flags: HW
LayerCount: 2
Fore
SplineSet
25 100 m 6
 70 100 l 5
 70 80 l 5
 65 80 l 5
 55 90 l 5
 50 90 l 5
 50 60 l 5
 70 60 l 5
 70 50 l 5
 50 50 l 5
 50 10 l 5
 55 10 l 5
 65 20 l 5
 70 20 l 5
 70 0 l 5
 30 0 l 5
 30 40 l 5
 20 40 l 5
 20 0 l 5
 0 0 l 5
 0 75 l 6
 0 88.806640625 11.193359375 100 25 100 c 6
20 90 m 5
 20 50 l 5
 30 50 l 5
 30 90 l 5
 20 90 l 5
EndSplineSet
EndChar

StartChar: Ccedilla
Encoding: 199 199 199
Width: 80
VWidth: 0
Flags: HW
LayerCount: 2
Fore
SplineSet
35 100 m 6
 45 100 l 6
 53.203125 100 62.89453125 94.634765625 70 86.16796875 c 5
 70 70 l 5
 60 70 l 5
 60.00390625 81.048828125 50 90.009765625 45 90.009765625 c 5
 45 90 l 5
 35 90 l 5
 35 90.009765625 l 5
 30 90.009765625 20 81.048828125 20 70 c 6
 20 30 l 6
 19.99609375 18.951171875 30 9.990234375 35 9.990234375 c 5
 35 10 l 5
 45 10 l 5
 45 9.990234375 l 5
 50 9.990234375 60 18.951171875 60 30 c 5
 70 30 l 5
 70 13.83203125 l 5
 64.296875 7.0361328125 56.9287109375 2.24609375 50 0.6171875 c 5
 50 -10 l 6
 50 -21.0458984375 41.0458984375 -30 30 -30 c 6
 25.0078125 -30 l 6
 21.37890625 -28.1328125 18.892578125 -24.359375 18.892578125 -19.998046875 c 4
 18.892578125 -15.6396484375 21.3759765625 -11.8681640625 25 -10 c 6
 40 -10 l 5
 40 0 l 5
 35 0 l 6
 20 0 0 17.9091796875 0 40 c 6
 0 60 l 6
 0 82.0908203125 20 100 35 100 c 6
EndSplineSet
EndChar

StartChar: Egrave
Encoding: 200 200 200
Width: 80
VWidth: 0
Flags: HW
LayerCount: 2
Fore
SplineSet
20 120 m 5
 35 120 l 5
 50 105 l 5
 50 100 l 5
 35 100 l 5
 20 115 l 5
 20 120 l 5
0 90 m 5
 70 90 l 5
 70 70 l 5
 65 70 l 5
 55 80 l 5
 30 80 l 5
 30 50 l 5
 35 50 l 5
 45 50 l 5
 50 50 l 5
 50 40 l 5
 45 40 l 5
 35 40 l 5
 30 40 l 5
 30 10 l 5
 55 10 l 5
 65 20 l 5
 70 20 l 5
 70 0 l 5
 0 0 l 5
 0 5 l 5
 10 15 l 5
 10 75 l 5
 0 85 l 5
 0 90 l 5
EndSplineSet
EndChar

StartChar: Eacute
Encoding: 201 201 201
Width: 80
VWidth: 0
Flags: HW
LayerCount: 2
Fore
SplineSet
35 120 m 5
 50 120 l 5
 50 115 l 5
 35 100 l 5
 20 100 l 5
 20 105 l 5
 35 120 l 5
0 90 m 5
 70 90 l 5
 70 70 l 5
 65 70 l 5
 55 80 l 5
 30 80 l 5
 30 50 l 5
 35 50 l 5
 45 50 l 5
 50 50 l 5
 50 40 l 5
 45 40 l 5
 35 40 l 5
 30 40 l 5
 30 10 l 5
 55 10 l 5
 65 20 l 5
 70 20 l 5
 70 0 l 5
 0 0 l 5
 0 5 l 5
 10 15 l 5
 10 75 l 5
 0 85 l 5
 0 90 l 5
EndSplineSet
EndChar

StartChar: Ecircumflex
Encoding: 202 202 202
Width: 80
VWidth: 0
Flags: HW
LayerCount: 2
Fore
SplineSet
34.98046875 130 m 1
 59.98046875 105 l 1
 59.98046875 100 l 1
 45 100 l 1
 34.98046875 115 l 1
 25 100 l 1
 9.98046875 100 l 1
 9.98046875 105 l 1
 34.98046875 130 l 1
0 90 m 1
 70 90 l 1
 70 70 l 1
 65 70 l 1
 55 80 l 1
 30 80 l 1
 30 50 l 1
 35 50 l 1
 45 50 l 1
 50 50 l 1
 50 40 l 1
 45 40 l 1
 35 40 l 1
 30 40 l 1
 30 10 l 1
 55 10 l 1
 65 20 l 1
 70 20 l 1
 70 0 l 1
 0 0 l 1
 0 5 l 1
 10 15 l 1
 10 75 l 1
 0 85 l 1
 0 90 l 1
EndSplineSet
EndChar

StartChar: Edieresis
Encoding: 203 203 203
Width: 80
VWidth: 0
Flags: HW
LayerCount: 2
Fore
SplineSet
10 120 m 5
 30 120 l 5
 30 110 l 5
 10 110 l 5
 10 120 l 5
40 120 m 5
 60 120 l 5
 60 110 l 5
 40 110 l 5
 40 120 l 5
0 90 m 5
 70 90 l 5
 70 70 l 5
 65 70 l 5
 55 80 l 5
 30 80 l 5
 30 50 l 5
 35 50 l 5
 45 50 l 5
 50 50 l 5
 50 40 l 5
 45 40 l 5
 35 40 l 5
 30 40 l 5
 30 10 l 5
 55 10 l 5
 65 20 l 5
 70 20 l 5
 70 0 l 5
 0 0 l 5
 0 5 l 5
 10 15 l 5
 10 75 l 5
 0 85 l 5
 0 90 l 5
EndSplineSet
EndChar

StartChar: Igrave
Encoding: 204 204 204
Width: 80
VWidth: 0
Flags: HW
LayerCount: 2
Fore
SplineSet
20 120 m 5
 35 120 l 5
 50 105 l 5
 50 100 l 5
 35 100 l 5
 20 115 l 5
 20 120 l 5
20 90.001953125 m 5
 60 90 l 5
 60 85.001953125 l 5
 50 75.001953125 l 5
 50 15 l 5
 60 5 l 5
 60 0 l 5
 20 0 l 5
 20 5 l 5
 30 15 l 5
 30 75.005859375 l 5
 20 85.005859375 l 5
 20 90.001953125 l 5
EndSplineSet
EndChar

StartChar: Iacute
Encoding: 205 205 205
Width: 80
VWidth: 0
Flags: HW
LayerCount: 2
Fore
SplineSet
35 120 m 5
 50 120 l 5
 50 115 l 5
 35 100 l 5
 20 100 l 5
 20 105 l 5
 35 120 l 5
20 90.001953125 m 5
 60 90 l 5
 60 85.001953125 l 5
 50 75.001953125 l 5
 50 15 l 5
 60 5 l 5
 60 0 l 5
 20 0 l 5
 20 5 l 5
 30 15 l 5
 30 75.005859375 l 5
 20 85.005859375 l 5
 20 90.001953125 l 5
EndSplineSet
EndChar

StartChar: Icircumflex
Encoding: 206 206 206
Width: 80
VWidth: 0
Flags: HW
LayerCount: 2
Fore
SplineSet
35 130 m 5
 60 105 l 5
 60 100 l 5
 45.01953125 100 l 5
 35 115 l 5
 25.01953125 100 l 5
 10 100 l 5
 10 105 l 5
 35 130 l 5
20.01953125 90.001953125 m 5
 60.01953125 90 l 5
 60.01953125 85.001953125 l 5
 50.01953125 75.001953125 l 5
 50.01953125 15 l 5
 60.01953125 5 l 5
 60.01953125 0 l 5
 20.01953125 0 l 5
 20.01953125 5 l 5
 30.01953125 15 l 5
 30.01953125 75.005859375 l 5
 20.01953125 85.005859375 l 5
 20.01953125 90.001953125 l 5
EndSplineSet
EndChar

StartChar: Idieresis
Encoding: 207 207 207
Width: 80
VWidth: 0
Flags: HW
LayerCount: 2
Fore
SplineSet
10 120 m 5
 30 120 l 5
 30 110 l 5
 10 110 l 5
 10 120 l 5
40 120 m 5
 60 120 l 5
 60 110 l 5
 40 110 l 5
 40 120 l 5
20 90.001953125 m 5
 60 90 l 5
 60 85.001953125 l 5
 50 75.001953125 l 5
 50 15 l 5
 60 5 l 5
 60 0 l 5
 20 0 l 5
 20 5 l 5
 30 15 l 5
 30 75.005859375 l 5
 20 85.005859375 l 5
 20 90.001953125 l 5
EndSplineSet
EndChar

StartChar: Ograve
Encoding: 210 210 210
Width: 80
VWidth: 0
Flags: HW
LayerCount: 2
Fore
SplineSet
20 120 m 5
 35 120 l 5
 50 105 l 5
 50 100 l 5
 35 100 l 5
 20 115 l 5
 20 120 l 5
22.998046875 90 m 6
 47.001953125 90 l 6
 59.703125 89.9990234375 69.9990234375 79.703125 70 67.001953125 c 6
 70 22.998046875 l 6
 69.9990234375 10.296875 59.703125 0 47.001953125 0 c 6
 22.998046875 0 l 6
 10.296875 0.0009765625 0.0009765625 10.296875 0 22.998046875 c 6
 0 67.001953125 l 6
 0.0009765625 79.703125 10.296875 90 22.998046875 90 c 6
19.98046875 80 m 5
 19.98046875 10 l 5
 49.98046875 10 l 5
 49.98046875 80 l 5
 19.98046875 80 l 5
EndSplineSet
EndChar

StartChar: Oacute
Encoding: 211 211 211
Width: 80
VWidth: 0
Flags: HW
LayerCount: 2
Fore
SplineSet
35 120 m 5
 50 120 l 5
 50 115 l 5
 35 100 l 5
 20 100 l 5
 20 105 l 5
 35 120 l 5
22.998046875 90 m 6
 47.001953125 90 l 6
 59.703125 89.9990234375 69.9990234375 79.703125 70 67.001953125 c 6
 70 22.998046875 l 6
 69.9990234375 10.296875 59.703125 0 47.001953125 0 c 6
 22.998046875 0 l 6
 10.296875 0.0009765625 0.0009765625 10.296875 0 22.998046875 c 6
 0 67.001953125 l 6
 0.0009765625 79.703125 10.296875 90 22.998046875 90 c 6
19.98046875 80 m 5
 19.98046875 10 l 5
 49.98046875 10 l 5
 49.98046875 80 l 5
 19.98046875 80 l 5
EndSplineSet
EndChar

StartChar: Ocircumflex
Encoding: 212 212 212
Width: 80
VWidth: 0
Flags: HW
LayerCount: 2
Fore
SplineSet
34.98046875 130 m 1
 59.98046875 105 l 1
 59.98046875 100 l 1
 45 100 l 1
 34.98046875 115 l 1
 25 100 l 1
 9.98046875 100 l 1
 9.98046875 105 l 1
 34.98046875 130 l 1
22.998046875 90 m 2
 47.001953125 90 l 2
 59.703125 89.9990234375 69.9990234375 79.703125 70 67.001953125 c 2
 70 22.998046875 l 2
 69.9990234375 10.296875 59.703125 0 47.001953125 0 c 2
 22.998046875 0 l 2
 10.296875 0.0009765625 0.0009765625 10.296875 0 22.998046875 c 2
 0 67.001953125 l 2
 0.0009765625 79.703125 10.296875 90 22.998046875 90 c 2
19.98046875 80 m 1
 19.98046875 10 l 1
 49.98046875 10 l 1
 49.98046875 80 l 1
 19.98046875 80 l 1
EndSplineSet
EndChar

StartChar: Otilde
Encoding: 282 213 213
Width: 80
VWidth: 0
Flags: HW
LayerCount: 2
Fore
SplineSet
25 130 m 1
 40 115 l 1
 45 120 l 1
 55 130 l 1
 60 130 l 1
 60 120 l 1
 60 115 l 1
 45 100 l 1
 35 100 l 1
 25 115 l 1
 15 100 l 1
 10 100 l 1
 10 110 l 1
 10 115 l 1
 25 130 l 1
22.998046875 90 m 2
 47.001953125 90 l 2
 59.703125 89.9990234375 69.9990234375 79.703125 70 67.001953125 c 2
 70 22.998046875 l 2
 69.9990234375 10.296875 59.703125 0 47.001953125 0 c 2
 22.998046875 0 l 2
 10.296875 0.0009765625 0.0009765625 10.296875 0 22.998046875 c 2
 0 67.001953125 l 2
 0.0009765625 79.703125 10.296875 90 22.998046875 90 c 2
19.98046875 80 m 1
 19.98046875 10 l 1
 49.98046875 10 l 1
 49.98046875 80 l 1
 19.98046875 80 l 1
EndSplineSet
EndChar

StartChar: Odieresis
Encoding: 214 214 214
Width: 80
VWidth: 0
Flags: HW
LayerCount: 2
Fore
SplineSet
10 120 m 5
 30 120 l 5
 30 110 l 5
 10 110 l 5
 10 120 l 5
40 120 m 5
 60 120 l 5
 60 110 l 5
 40 110 l 5
 40 120 l 5
22.998046875 90 m 6
 47.001953125 90 l 6
 59.703125 89.9990234375 69.9990234375 79.703125 70 67.001953125 c 6
 70 22.998046875 l 6
 69.9990234375 10.296875 59.703125 0 47.001953125 0 c 6
 22.998046875 0 l 6
 10.296875 0.0009765625 0.0009765625 10.296875 0 22.998046875 c 6
 0 67.001953125 l 6
 0.0009765625 79.703125 10.296875 90 22.998046875 90 c 6
19.98046875 80 m 5
 19.98046875 10 l 5
 49.98046875 10 l 5
 49.98046875 80 l 5
 19.98046875 80 l 5
EndSplineSet
EndChar

StartChar: Ugrave
Encoding: 217 217 217
Width: 80
VWidth: 0
Flags: HW
LayerCount: 2
Fore
SplineSet
20 120 m 5
 35 120 l 5
 50 105 l 5
 50 100 l 5
 35 100 l 5
 20 115 l 5
 20 120 l 5
0 90 m 5
 20 90 l 5
 20 10 l 5
 50 10 l 5
 50 90 l 5
 70 90 l 5
 70 23 l 6
 69.9990234375 10.298828125 59.701171875 0 47 0 c 6
 23 0 l 6
 10.298828125 0.0009765625 0.0009765625 10.298828125 0 23 c 6
 0 90 l 5
EndSplineSet
EndChar

StartChar: Uacute
Encoding: 218 218 218
Width: 80
VWidth: 0
Flags: HW
LayerCount: 2
Fore
SplineSet
35 120 m 5
 50 120 l 5
 50 115 l 5
 35 100 l 5
 20 100 l 5
 20 105 l 5
 35 120 l 5
0 90 m 5
 20 90 l 5
 20 10 l 5
 50 10 l 5
 50 90 l 5
 70 90 l 5
 70 23 l 6
 69.9990234375 10.298828125 59.701171875 0 47 0 c 6
 23 0 l 6
 10.298828125 0.0009765625 0.0009765625 10.298828125 0 23 c 6
 0 90 l 5
EndSplineSet
EndChar

StartChar: Ucircumflex
Encoding: 219 219 219
Width: 80
VWidth: 0
Flags: HW
LayerCount: 2
Fore
SplineSet
34.98046875 130 m 1
 59.98046875 105 l 1
 59.98046875 100 l 1
 45 100 l 1
 34.98046875 115 l 1
 25 100 l 1
 9.98046875 100 l 1
 9.98046875 105 l 1
 34.98046875 130 l 1
0 90 m 1
 20 90 l 1
 20 10 l 1
 50 10 l 1
 50 90 l 1
 70 90 l 1
 70 23 l 2
 69.9990234375 10.298828125 59.701171875 0 47 0 c 2
 23 0 l 2
 10.298828125 0.0009765625 0.0009765625 10.298828125 0 23 c 2
 0 90 l 1
EndSplineSet
EndChar

StartChar: Udieresis
Encoding: 220 220 220
Width: 80
VWidth: 0
Flags: HW
LayerCount: 2
Fore
SplineSet
10 120 m 5
 30 120 l 5
 30 110 l 5
 10 110 l 5
 10 120 l 5
40 120 m 5
 60 120 l 5
 60 110 l 5
 40 110 l 5
 40 120 l 5
0 90 m 5
 20 90 l 5
 20 10 l 5
 50 10 l 5
 50 90 l 5
 70 90 l 5
 70 23 l 6
 69.9990234375 10.298828125 59.701171875 0 47 0 c 6
 23 0 l 6
 10.298828125 0.0009765625 0.0009765625 10.298828125 0 23 c 6
 0 90 l 5
EndSplineSet
EndChar

StartChar: agrave
Encoding: 224 224 224
Width: 80
VWidth: 0
Flags: HW
LayerCount: 2
Fore
SplineSet
20 100 m 5
 35 100 l 5
 50 85 l 5
 50 80 l 5
 35 80 l 5
 20 95 l 5
 20 100 l 5
10 70 m 5
 35 70 l 6
 48.806640625 70 60 58.806640625 60 45 c 6
 60 15 l 5
 70 5 l 5
 70 0 l 5
 55 0 l 5
 45 15 l 5
 35 0 l 5
 25 0 l 6
 11.193359375 0 0 11.193359375 0 25 c 4
 0 38.806640625 11.193359375 50 25 50 c 6
 40 50 l 5
 40 60 l 5
 10 60 l 5
 10 70 l 5
20 40 m 5
 20 10 l 5
 40 10 l 5
 40 40 l 5
 20 40 l 5
EndSplineSet
EndChar

StartChar: aacute
Encoding: 225 225 225
Width: 80
VWidth: 0
Flags: HW
LayerCount: 2
Fore
SplineSet
35 100 m 5
 50 100 l 5
 50 95 l 5
 35 80 l 5
 20 80 l 5
 20 85 l 5
 35 100 l 5
10 70 m 5
 35 70 l 6
 48.806640625 70 60 58.806640625 60 45 c 6
 60 15 l 5
 70 5 l 5
 70 0 l 5
 55 0 l 5
 45 15 l 5
 35 0 l 5
 25 0 l 6
 11.193359375 0 0 11.193359375 0 25 c 4
 0 38.806640625 11.193359375 50 25 50 c 6
 40 50 l 5
 40 60 l 5
 10 60 l 5
 10 70 l 5
20 40 m 5
 20 10 l 5
 40 10 l 5
 40 40 l 5
 20 40 l 5
EndSplineSet
EndChar

StartChar: acircumflex
Encoding: 226 226 226
Width: 80
VWidth: 0
Flags: HW
LayerCount: 2
Fore
SplineSet
34.98046875 110 m 5
 59.98046875 85 l 5
 59.98046875 80 l 5
 45 80 l 5
 34.98046875 95 l 5
 25 80 l 5
 9.98046875 80 l 5
 9.98046875 85 l 5
 34.98046875 110 l 5
10 70 m 5
 35 70 l 6
 48.806640625 70 60 58.806640625 60 45 c 6
 60 15 l 5
 70 5 l 5
 70 0 l 5
 55 0 l 5
 45 15 l 5
 35 0 l 5
 25 0 l 6
 11.193359375 0 0 11.193359375 0 25 c 4
 0 38.806640625 11.193359375 50 25 50 c 6
 40 50 l 5
 40 60 l 5
 10 60 l 5
 10 70 l 5
20 40 m 5
 20 10 l 5
 40 10 l 5
 40 40 l 5
 20 40 l 5
EndSplineSet
EndChar

StartChar: atilde
Encoding: 287 227 227
Width: 80
VWidth: 0
Flags: HW
LayerCount: 2
Fore
SplineSet
25 110 m 5
 40 95 l 5
 45 100 l 5
 55 110 l 5
 60 110 l 5
 60 100 l 5
 60 95 l 5
 45 80 l 5
 35 80 l 5
 25 95 l 5
 15 80 l 5
 10 80 l 5
 10 90 l 5
 10 95 l 5
 25 110 l 5
10 70 m 5
 35 70 l 6
 48.806640625 70 60 58.806640625 60 45 c 6
 60 15 l 5
 70 5 l 5
 70 0 l 5
 55 0 l 5
 45 15 l 5
 35 0 l 5
 25 0 l 6
 11.193359375 0 0 11.193359375 0 25 c 4
 0 38.806640625 11.193359375 50 25 50 c 6
 40 50 l 5
 40 60 l 5
 10 60 l 5
 10 70 l 5
20 40 m 5
 20 10 l 5
 40 10 l 5
 40 40 l 5
 20 40 l 5
EndSplineSet
EndChar

StartChar: adieresis
Encoding: 228 228 228
Width: 80
VWidth: 0
Flags: HW
LayerCount: 2
Fore
SplineSet
10 100 m 5
 30 100 l 5
 30 90 l 5
 10 90 l 5
 10 100 l 5
40 100 m 5
 60 100 l 5
 60 90 l 5
 40 90 l 5
 40 100 l 5
10 70 m 5
 35 70 l 6
 48.806640625 70 60 58.806640625 60 45 c 6
 60 15 l 5
 70 5 l 5
 70 0 l 5
 55 0 l 5
 45 15 l 5
 35 0 l 5
 25 0 l 6
 11.193359375 0 0 11.193359375 0 25 c 4
 0 38.806640625 11.193359375 50 25 50 c 6
 40 50 l 5
 40 60 l 5
 10 60 l 5
 10 70 l 5
20 40 m 5
 20 10 l 5
 40 10 l 5
 40 40 l 5
 20 40 l 5
EndSplineSet
EndChar

StartChar: ae
Encoding: 230 230 230
Width: 80
VWidth: 0
Flags: HW
LayerCount: 2
Fore
SplineSet
10 70 m 5
 45 70 l 6
 58.806640625 70 70 58.806640625 70 45 c 6
 70 40 l 5
 40 40 l 5
 40 10.017578125 l 5
 40 10 l 5
 46.4326171875 10.009765625 53.19921875 13.9853515625 55.482421875 20 c 5
 70 20 l 5
 67.6240234375 8.3603515625 57.3857421875 0 45.505859375 0 c 6
 25 0 l 6
 11.193359375 0 0 11.193359375 0 25 c 4
 0 38.806640625 11.193359375 50 25 50 c 6
 30 50 l 5
 30 60 l 5
 10 60 l 5
 10 70 l 5
40 60 m 5
 40 50 l 5
 50 50 l 5
 50 60 l 5
 40 60 l 5
20 40 m 5
 20 10 l 5
 30 10 l 5
 30 40 l 5
 20 40 l 5
EndSplineSet
EndChar

StartChar: ccedilla
Encoding: 231 231 231
Width: 80
VWidth: 0
Flags: HW
LayerCount: 2
Fore
SplineSet
25 70 m 6
 45.505859375 70 l 6
 57.3857421875 70 67.6240234375 61.6396484375 70 50 c 5
 55.482421875 50 l 5
 53.19921875 56.0146484375 47.439453125 59.990234375 41.005859375 60 c 6
 20 60 l 5
 20 10 l 5
 41.005859375 10 l 6
 47.439453125 10.009765625 53.19921875 13.9853515625 55.482421875 20 c 5
 70 20 l 5
 67.9306640625 9.8603515625 59.890625 2.2158203125 50 0.412109375 c 5
 50 -10 l 6
 50 -21.0458984375 41.0458984375 -30 30 -30 c 6
 25.0078125 -30 l 6
 21.37890625 -28.1328125 18.892578125 -24.359375 18.892578125 -19.998046875 c 4
 18.892578125 -15.6396484375 21.3759765625 -11.8681640625 25 -10 c 6
 40 -10 l 5
 40 0 l 5
 25 0 l 6
 11.193359375 0 0 11.193359375 0 25 c 6
 0 45 l 6
 0 58.806640625 11.193359375 70 25 70 c 6
EndSplineSet
EndChar

StartChar: egrave
Encoding: 232 232 232
Width: 80
VWidth: 0
Flags: HW
LayerCount: 2
Fore
SplineSet
19.998046875 100 m 5
 34.998046875 100 l 5
 49.998046875 85 l 5
 49.998046875 80 l 5
 34.998046875 80 l 5
 19.998046875 95 l 5
 19.998046875 100 l 5
24.998046875 70 m 6
 44.998046875 70 l 6
 58.8046875 70 69.998046875 58.806640625 69.998046875 45 c 6
 69.998046875 40 l 5
 19.998046875 40 l 5
 19.998046875 10 l 5
 41.005859375 10 l 6
 47.4384765625 10.009765625 53.19921875 13.9853515625 55.482421875 20 c 5
 70 20 l 5
 67.6240234375 8.3603515625 57.3857421875 0 45.505859375 0 c 6
 25 0 l 6
 11.193359375 0 0 11.193359375 0 25 c 6
 0 45 l 6
 0 58.806640625 11.19140625 70 24.998046875 70 c 6
20 60 m 5
 20 50 l 5
 49.998046875 50 l 5
 49.998046875 60 l 5
 20 60 l 5
EndSplineSet
EndChar

StartChar: eacute
Encoding: 233 233 233
Width: 80
VWidth: 0
Flags: HW
LayerCount: 2
Fore
SplineSet
34.998046875 100 m 5
 49.998046875 100 l 5
 49.998046875 95 l 5
 34.998046875 80 l 5
 19.998046875 80 l 5
 19.998046875 85 l 5
 34.998046875 100 l 5
24.998046875 70 m 6
 44.998046875 70 l 6
 58.8046875 70 69.998046875 58.806640625 69.998046875 45 c 6
 69.998046875 40 l 5
 19.998046875 40 l 5
 19.998046875 10 l 5
 41.005859375 10 l 6
 47.4384765625 10.009765625 53.19921875 13.9853515625 55.482421875 20 c 5
 70 20 l 5
 67.6240234375 8.3603515625 57.3857421875 0 45.505859375 0 c 6
 25 0 l 6
 11.193359375 0 0 11.193359375 0 25 c 6
 0 45 l 6
 0 58.806640625 11.19140625 70 24.998046875 70 c 6
20 60 m 5
 20 50 l 5
 49.998046875 50 l 5
 49.998046875 60 l 5
 20 60 l 5
EndSplineSet
EndChar

StartChar: ecircumflex
Encoding: 234 234 234
Width: 80
VWidth: 0
Flags: HW
LayerCount: 2
Fore
SplineSet
34.978515625 110 m 5
 59.978515625 85 l 5
 59.978515625 80 l 5
 44.998046875 80 l 5
 34.978515625 95 l 5
 24.998046875 80 l 5
 9.978515625 80 l 5
 9.978515625 85 l 5
 34.978515625 110 l 5
24.998046875 70 m 6
 44.998046875 70 l 6
 58.8046875 70 69.998046875 58.806640625 69.998046875 45 c 6
 69.998046875 40 l 5
 19.998046875 40 l 5
 19.998046875 10 l 5
 41.005859375 10 l 6
 47.4384765625 10.009765625 53.19921875 13.9853515625 55.482421875 20 c 5
 70 20 l 5
 67.6240234375 8.3603515625 57.3857421875 0 45.505859375 0 c 6
 25 0 l 6
 11.193359375 0 0 11.193359375 0 25 c 6
 0 45 l 6
 0 58.806640625 11.19140625 70 24.998046875 70 c 6
20 60 m 5
 20 50 l 5
 49.998046875 50 l 5
 49.998046875 60 l 5
 20 60 l 5
EndSplineSet
EndChar

StartChar: edieresis
Encoding: 235 235 235
Width: 80
VWidth: 0
Flags: HW
LayerCount: 2
Fore
SplineSet
9.998046875 100 m 5
 29.998046875 100 l 5
 29.998046875 90 l 5
 9.998046875 90 l 5
 9.998046875 100 l 5
39.998046875 100 m 5
 59.998046875 100 l 5
 59.998046875 90 l 5
 39.998046875 90 l 5
 39.998046875 100 l 5
24.998046875 70 m 6
 44.998046875 70 l 6
 58.8046875 70 69.998046875 58.806640625 69.998046875 45 c 6
 69.998046875 40 l 5
 19.998046875 40 l 5
 19.998046875 10 l 5
 41.005859375 10 l 6
 47.4384765625 10.009765625 53.19921875 13.9853515625 55.482421875 20 c 5
 70 20 l 5
 67.6240234375 8.3603515625 57.3857421875 0 45.505859375 0 c 6
 25 0 l 6
 11.193359375 0 0 11.193359375 0 25 c 6
 0 45 l 6
 0 58.806640625 11.19140625 70 24.998046875 70 c 6
20 60 m 5
 20 50 l 5
 49.998046875 50 l 5
 49.998046875 60 l 5
 20 60 l 5
EndSplineSet
EndChar

StartChar: igrave
Encoding: 236 236 236
Width: 80
VWidth: 0
Flags: HW
LayerCount: 2
Fore
SplineSet
20 100 m 5
 35 100 l 5
 50 85 l 5
 50 80 l 5
 35 80 l 5
 20 95 l 5
 20 100 l 5
20 70 m 5
 50 70 l 5
 50 15 l 5
 60 5 l 5
 60 0 l 5
 20 0 l 5
 20 5 l 5
 30 15 l 5
 30 55 l 5
 20 65 l 5
 20 70 l 5
EndSplineSet
EndChar

StartChar: iacute
Encoding: 237 237 237
Width: 80
VWidth: 0
Flags: HW
LayerCount: 2
Fore
SplineSet
35 100 m 5
 50 100 l 5
 50 95 l 5
 35 80 l 5
 20 80 l 5
 20 85 l 5
 35 100 l 5
20 70 m 5
 50 70 l 5
 50 15 l 5
 60 5 l 5
 60 0 l 5
 20 0 l 5
 20 5 l 5
 30 15 l 5
 30 55 l 5
 20 65 l 5
 20 70 l 5
EndSplineSet
EndChar

StartChar: icircumflex
Encoding: 238 238 238
Width: 80
VWidth: 0
Flags: HW
LayerCount: 2
Fore
SplineSet
35 110 m 5
 60 85 l 5
 60 80 l 5
 45.01953125 80 l 5
 35 95 l 5
 25.01953125 80 l 5
 10 80 l 5
 10 85 l 5
 35 110 l 5
20.01953125 70 m 5
 50.01953125 70 l 5
 50.01953125 15 l 5
 60.01953125 5 l 5
 60.01953125 0 l 5
 20.01953125 0 l 5
 20.01953125 5 l 5
 30.01953125 15 l 5
 30.01953125 55 l 5
 20.01953125 65 l 5
 20.01953125 70 l 5
EndSplineSet
EndChar

StartChar: idieresis
Encoding: 239 239 239
Width: 80
VWidth: 0
Flags: HW
LayerCount: 2
Fore
SplineSet
10 100 m 5
 30 100 l 5
 30 90 l 5
 10 90 l 5
 10 100 l 5
40 100 m 5
 60 100 l 5
 60 90 l 5
 40 90 l 5
 40 100 l 5
20 70 m 5
 50 70 l 5
 50 15 l 5
 60 5 l 5
 60 0 l 5
 20 0 l 5
 20 5 l 5
 30 15 l 5
 30 55 l 5
 20 65 l 5
 20 70 l 5
EndSplineSet
EndChar

StartChar: ograve
Encoding: 242 242 242
Width: 80
VWidth: 0
Flags: HW
LayerCount: 2
Fore
SplineSet
20 100 m 5
 35 100 l 5
 50 85 l 5
 50 80 l 5
 35 80 l 5
 20 95 l 5
 20 100 l 5
25 70 m 6
 45 70 l 6
 58.806640625 70 70 58.806640625 70 45 c 6
 70 25 l 6
 70 11.193359375 58.806640625 0 45 0 c 6
 25 0 l 6
 11.193359375 0 0 11.193359375 0 25 c 6
 0 45 l 6
 0 58.806640625 11.193359375 70 25 70 c 6
20 60 m 5
 20 10 l 5
 50 10 l 5
 50 60 l 5
 20 60 l 5
EndSplineSet
EndChar

StartChar: oacute
Encoding: 243 243 243
Width: 80
VWidth: 0
Flags: HW
LayerCount: 2
Fore
SplineSet
35 100 m 5
 50 100 l 5
 50 95 l 5
 35 80 l 5
 20 80 l 5
 20 85 l 5
 35 100 l 5
25 70 m 6
 45 70 l 6
 58.806640625 70 70 58.806640625 70 45 c 6
 70 25 l 6
 70 11.193359375 58.806640625 0 45 0 c 6
 25 0 l 6
 11.193359375 0 0 11.193359375 0 25 c 6
 0 45 l 6
 0 58.806640625 11.193359375 70 25 70 c 6
20 60 m 5
 20 10 l 5
 50 10 l 5
 50 60 l 5
 20 60 l 5
EndSplineSet
EndChar

StartChar: ocircumflex
Encoding: 244 244 244
Width: 80
VWidth: 0
Flags: HW
LayerCount: 2
Fore
SplineSet
34.98046875 110 m 5
 59.98046875 85 l 5
 59.98046875 80 l 5
 45 80 l 5
 34.98046875 95 l 5
 25 80 l 5
 9.98046875 80 l 5
 9.98046875 85 l 5
 34.98046875 110 l 5
25 70 m 6
 45 70 l 6
 58.806640625 70 70 58.806640625 70 45 c 6
 70 25 l 6
 70 11.193359375 58.806640625 0 45 0 c 6
 25 0 l 6
 11.193359375 0 0 11.193359375 0 25 c 6
 0 45 l 6
 0 58.806640625 11.193359375 70 25 70 c 6
20 60 m 5
 20 10 l 5
 50 10 l 5
 50 60 l 5
 20 60 l 5
EndSplineSet
EndChar

StartChar: otilde
Encoding: 291 245 245
Width: 80
VWidth: 0
Flags: HW
LayerCount: 2
Fore
SplineSet
25 110 m 5
 40 95 l 5
 45 100 l 5
 55 110 l 5
 60 110 l 5
 60 100 l 5
 60 95 l 5
 45 80 l 5
 35 80 l 5
 25 95 l 5
 15 80 l 5
 10 80 l 5
 10 90 l 5
 10 95 l 5
 25 110 l 5
25 70 m 6
 45 70 l 6
 58.806640625 70 70 58.806640625 70 45 c 6
 70 25 l 6
 70 11.193359375 58.806640625 0 45 0 c 6
 25 0 l 6
 11.193359375 0 0 11.193359375 0 25 c 6
 0 45 l 6
 0 58.806640625 11.193359375 70 25 70 c 6
20 60 m 5
 20 10 l 5
 50 10 l 5
 50 60 l 5
 20 60 l 5
EndSplineSet
EndChar

StartChar: odieresis
Encoding: 246 246 246
Width: 80
VWidth: 0
Flags: HW
LayerCount: 2
Fore
SplineSet
10 100 m 5
 30 100 l 5
 30 90 l 5
 10 90 l 5
 10 100 l 5
40 100 m 5
 60 100 l 5
 60 90 l 5
 40 90 l 5
 40 100 l 5
25 70 m 6
 45 70 l 6
 58.806640625 70 70 58.806640625 70 45 c 6
 70 25 l 6
 70 11.193359375 58.806640625 0 45 0 c 6
 25 0 l 6
 11.193359375 0 0 11.193359375 0 25 c 6
 0 45 l 6
 0 58.806640625 11.193359375 70 25 70 c 6
20 60 m 5
 20 10 l 5
 50 10 l 5
 50 60 l 5
 20 60 l 5
EndSplineSet
EndChar

StartChar: ugrave
Encoding: 249 249 249
Width: 80
VWidth: 0
Flags: HW
LayerCount: 2
Fore
SplineSet
20 100 m 5
 35 100 l 5
 50 85 l 5
 50 80 l 5
 35 80 l 5
 20 95 l 5
 20 100 l 5
0 70 m 5
 20 70 l 5
 20 17.65234375 l 6
 20 12.12890625 24.4765625 7.65234375 30 7.65234375 c 6
 40 15 l 5
 40 70 l 5
 60 70 l 5
 60 15 l 5
 70 5 l 5
 70 0 l 5
 55 0 l 5
 45 15 l 5
 35 0 l 5
 25 0 l 6
 11.193359375 0 0 11.193359375 0 25 c 6
 0 70 l 5
EndSplineSet
EndChar

StartChar: uacute
Encoding: 250 250 250
Width: 80
VWidth: 0
Flags: HW
LayerCount: 2
Fore
SplineSet
35 100 m 5
 50 100 l 5
 50 95 l 5
 35 80 l 5
 20 80 l 5
 20 85 l 5
 35 100 l 5
0 70 m 5
 20 70 l 5
 20 17.65234375 l 6
 20 12.12890625 24.4765625 7.65234375 30 7.65234375 c 6
 40 15 l 5
 40 70 l 5
 60 70 l 5
 60 15 l 5
 70 5 l 5
 70 0 l 5
 55 0 l 5
 45 15 l 5
 35 0 l 5
 25 0 l 6
 11.193359375 0 0 11.193359375 0 25 c 6
 0 70 l 5
EndSplineSet
EndChar

StartChar: ucircumflex
Encoding: 251 251 251
Width: 80
VWidth: 0
Flags: HW
LayerCount: 2
Fore
SplineSet
34.98046875 110 m 5
 59.98046875 85 l 5
 59.98046875 80 l 5
 45 80 l 5
 34.98046875 95 l 5
 25 80 l 5
 9.98046875 80 l 5
 9.98046875 85 l 5
 34.98046875 110 l 5
0 70 m 5
 20 70 l 5
 20 17.65234375 l 6
 20 12.12890625 24.4765625 7.65234375 30 7.65234375 c 6
 40 15 l 5
 40 70 l 5
 60 70 l 5
 60 15 l 5
 70 5 l 5
 70 0 l 5
 55 0 l 5
 45 15 l 5
 35 0 l 5
 25 0 l 6
 11.193359375 0 0 11.193359375 0 25 c 6
 0 70 l 5
EndSplineSet
EndChar

StartChar: udieresis
Encoding: 252 252 252
Width: 80
VWidth: 0
Flags: HW
LayerCount: 2
Fore
SplineSet
10 100 m 5
 30 100 l 5
 30 90 l 5
 10 90 l 5
 10 100 l 5
40 100 m 5
 60 100 l 5
 60 90 l 5
 40 90 l 5
 40 100 l 5
0 70 m 5
 20 70 l 5
 20 17.65234375 l 6
 20 12.12890625 24.4765625 7.65234375 30 7.65234375 c 6
 40 15 l 5
 40 70 l 5
 60 70 l 5
 60 15 l 5
 70 5 l 5
 70 0 l 5
 55 0 l 5
 45 15 l 5
 35 0 l 5
 25 0 l 6
 11.193359375 0 0 11.193359375 0 25 c 6
 0 70 l 5
EndSplineSet
EndChar

StartChar: Euro
Encoding: 164 8364 256
Width: 80
VWidth: 0
Flags: HW
LayerCount: 2
Fore
SplineSet
45 100 m 6
 55 100 l 6
 59.7646484375 100 65.029296875 98.1796875 70 95.00390625 c 5
 70 80 l 5
 67.26171875 80 l 5
 63.9345703125 85.9775390625 58.349609375 90.009765625 55 90.009765625 c 6
 55 90 l 5
 45 90 l 5
 45 90.009765625 l 5
 40 90.009765625 30 81.048828125 30 70 c 5
 70 70 l 5
 65 60 l 5
 30 60 l 5
 30 40 l 5
 60 40 l 5
 55 30 l 5
 30 30 l 5
 29.99609375 18.951171875 40 9.990234375 45 9.990234375 c 5
 45 10 l 5
 55 10 l 5
 55 9.990234375 l 6
 58.349609375 9.990234375 63.9326171875 14.0224609375 67.259765625 20 c 5
 70 20 l 5
 70 4.99609375 l 5
 65.029296875 1.8193359375 59.7646484375 0 55 0 c 6
 45 0 l 6
 32.3447265625 0 16.130859375 12.748046875 11.37109375 30 c 5
 0 30 l 5
 5 40 l 5
 10 40 l 5
 10 60 l 5
 0 60 l 5
 5 70 l 5
 11.37109375 70 l 5
 16.130859375 87.251953125 32.3447265625 100 45 100 c 6
EndSplineSet
EndChar

StartChar: OE
Encoding: 188 338 274
Width: 80
VWidth: 0
Flags: HW
LayerCount: 2
Fore
SplineSet
25 100 m 6
 70 100 l 5
 70 80 l 5
 65 80 l 5
 55 90 l 5
 50 90 l 5
 50 60 l 5
 70 60 l 5
 70 50 l 5
 50 50 l 5
 50 10 l 5
 55 10 l 5
 65 20 l 5
 70 20 l 5
 70 0 l 5
 25 0 l 6
 11.193359375 0 0 11.193359375 0 25 c 6
 0 75 l 6
 0 88.806640625 11.193359375 100 25 100 c 6
20 90 m 5
 20 10 l 5
 30 10 l 5
 30 90 l 5
 20 90 l 5
EndSplineSet
EndChar

StartChar: oe
Encoding: 189 339 275
Width: 80
VWidth: 0
Flags: HW
LayerCount: 2
Fore
SplineSet
25.001953125 69.9970703125 m 5
 25.001953125 70 l 5
 45.5263671875 70 l 6
 57.3984375 69.990234375 67.625 61.6318359375 69.9990234375 50 c 6
 69.9990234375 40 l 5
 39.9990234375 40 l 5
 39.9990234375 10 l 5
 40.87890625 10 l 6
 47.2275390625 10 52.8828125 14.013671875 55 20 c 5
 70 20 l 5
 67.6259765625 8.3681640625 57.3974609375 0 45.52734375 0 c 6
 25 0 l 6
 11.1923828125 0 -0.0009765625 11.1923828125 0 25 c 6
 0.080078125 44.9970703125 l 6
 0.0791015625 58.7783203125 11.23046875 69.9970703125 25.001953125 69.9970703125 c 5
20.001953125 59.9970703125 m 5
 20.001953125 9.9970703125 l 5
 30.001953125 9.9970703125 l 5
 30.001953125 59.9970703125 l 5
 20.001953125 59.9970703125 l 5
40.001953125 59.9970703125 m 5
 40.001953125 49.9970703125 l 5
 50.001953125 49.9970703125 l 5
 50.001953125 59.9970703125 l 5
 40.001953125 59.9970703125 l 5
EndSplineSet
EndChar

